<svg version="1.2" xmlns="http://www.w3.org/2000/svg" viewBox="0 0 1500 1000" width="1500" height="1000">
	<title>10262398-ai</title>
	<style>
		.s0 { fill: none;stroke: #9db4bf;stroke-miterlimit:10;stroke-width: 1.4 } 
		.s1 { fill: none;stroke: #9db4bf;stroke-miterlimit:10;stroke-width: 2;stroke-dasharray: 4,4 } 
	</style>
	<g id="BACKGROUND">
	</g>
	<g id="OBJECTS">
		<g id="&lt;Group&gt;">
			<path id="&lt;Path&gt;" class="s0" d="m77.5 43v914"/>
			<path id="&lt;Path&gt;" class="s1" d="m112 43v914"/>
			<path id="&lt;Path&gt;" class="s0" d="m146.5 43v914"/>
			<path id="&lt;Path&gt;" class="s1" d="m181 43v914"/>
			<path id="&lt;Path&gt;" class="s0" d="m215.4 43v914"/>
			<path id="&lt;Path&gt;" class="s1" d="m249.9 43v914"/>
			<path id="&lt;Path&gt;" class="s0" d="m284.4 43v914"/>
			<path id="&lt;Path&gt;" class="s1" d="m318.9 43v914"/>
			<path id="&lt;Path&gt;" class="s0" d="m353.4 43v914"/>
			<path id="&lt;Path&gt;" class="s1" d="m387.9 43v914"/>
			<path id="&lt;Path&gt;" class="s0" d="m422.4 43v914"/>
			<path id="&lt;Path&gt;" class="s1" d="m456.9 43v914"/>
			<path id="&lt;Path&gt;" class="s0" d="m491.3 43v914"/>
			<path id="&lt;Path&gt;" class="s1" d="m525.8 43v914"/>
			<path id="&lt;Path&gt;" class="s0" d="m560.3 43v914"/>
			<path id="&lt;Path&gt;" class="s1" d="m594.8 43v914"/>
			<path id="&lt;Path&gt;" class="s0" d="m629.3 43v914"/>
			<path id="&lt;Path&gt;" class="s1" d="m663.8 43v914"/>
			<path id="&lt;Path&gt;" class="s0" d="m698.3 43v914"/>
			<path id="&lt;Path&gt;" class="s1" d="m732.8 43v914"/>
			<path id="&lt;Path&gt;" class="s0" d="m767.2 43v914"/>
			<path id="&lt;Path&gt;" class="s1" d="m801.7 43v914"/>
			<path id="&lt;Path&gt;" class="s0" d="m836.2 43v914"/>
			<path id="&lt;Path&gt;" class="s1" d="m870.7 43v914"/>
			<path id="&lt;Path&gt;" class="s0" d="m905.2 43v914"/>
			<path id="&lt;Path&gt;" class="s1" d="m939.7 43v914"/>
			<path id="&lt;Path&gt;" class="s0" d="m974.2 43v914"/>
			<path id="&lt;Path&gt;" class="s1" d="m1008.7 43v914"/>
			<path id="&lt;Path&gt;" class="s0" d="m1043.1 43v914"/>
			<path id="&lt;Path&gt;" class="s1" d="m1077.6 43v914"/>
			<path id="&lt;Path&gt;" class="s0" d="m1112.1 43v914"/>
			<path id="&lt;Path&gt;" class="s1" d="m1146.6 43v914"/>
			<path id="&lt;Path&gt;" class="s0" d="m1181.1 43v914"/>
			<path id="&lt;Path&gt;" class="s1" d="m1215.6 43v914"/>
			<path id="&lt;Path&gt;" class="s0" d="m1250.1 43v914"/>
			<path id="&lt;Path&gt;" class="s1" d="m1284.6 43v914"/>
			<path id="&lt;Path&gt;" class="s0" d="m1319 43v914"/>
			<path id="&lt;Path&gt;" class="s1" d="m1353.5 43v914"/>
			<path id="&lt;Path&gt;" class="s0" d="m1388 43v914"/>
			<path id="&lt;Path&gt;" class="s1" d="m1422.5 43v914"/>
			<path id="&lt;Path&gt;" class="s0" d="m1457 923.1h-1414"/>
			<path id="&lt;Path&gt;" class="s1" d="m1457 889.3h-1414"/>
			<path id="&lt;Path&gt;" class="s0" d="m1457 855.4h-1414"/>
			<path id="&lt;Path&gt;" class="s1" d="m1457 821.6h-1414"/>
			<path id="&lt;Path&gt;" class="s0" d="m1457 787.7h-1414"/>
			<path id="&lt;Path&gt;" class="s1" d="m1457 753.9h-1414"/>
			<path id="&lt;Path&gt;" class="s0" d="m1457 720h-1414"/>
			<path id="&lt;Path&gt;" class="s1" d="m1457 686.2h-1414"/>
			<path id="&lt;Path&gt;" class="s0" d="m1457 652.3h-1414"/>
			<path id="&lt;Path&gt;" class="s1" d="m1457 618.5h-1414"/>
			<path id="&lt;Path&gt;" class="s0" d="m1457 584.6h-1414"/>
			<path id="&lt;Path&gt;" class="s1" d="m1457 550.8h-1414"/>
			<path id="&lt;Path&gt;" class="s0" d="m1457 516.9h-1414"/>
			<path id="&lt;Path&gt;" class="s1" d="m1457 483.1h-1414"/>
			<path id="&lt;Path&gt;" class="s0" d="m1457 449.2h-1414"/>
			<path id="&lt;Path&gt;" class="s1" d="m1457 415.4h-1414"/>
			<path id="&lt;Path&gt;" class="s0" d="m1457 381.5h-1414"/>
			<path id="&lt;Path&gt;" class="s1" d="m1457 347.7h-1414"/>
			<path id="&lt;Path&gt;" class="s0" d="m1457 313.8h-1414"/>
			<path id="&lt;Path&gt;" class="s1" d="m1457 280h-1414"/>
			<path id="&lt;Path&gt;" class="s0" d="m1457 246.1h-1414"/>
			<path id="&lt;Path&gt;" class="s1" d="m1457 212.3h-1414"/>
			<path id="&lt;Path&gt;" class="s0" d="m1457 178.4h-1414"/>
			<path id="&lt;Path&gt;" class="s1" d="m1457 144.6h-1414"/>
			<path id="&lt;Path&gt;" class="s0" d="m1457 110.7h-1414"/>
			<path id="&lt;Path&gt;" class="s1" d="m1457 76.9h-1414"/>
			<path id="&lt;Path&gt;" class="s0" d="m1457 957h-1414v-914h1414z"/>
		</g>
	</g>
</svg>