<svg version="1.2" xmlns="http://www.w3.org/2000/svg" viewBox="0 0 1000 1000" width="1000" height="1000">
	<title>6920931-ai</title>
	<defs>
		<clipPath clipPathUnits="userSpaceOnUse" id="cp1">
			<path d="m545.49 719.61c0 0-26.09 52.34-8.19 101.65l214.14-69.23c0 0-18.07-33.71-1.2-75.27z"/>
		</clipPath>
		<clipPath clipPathUnits="userSpaceOnUse" id="cp2">
			<path d="m761.26 605.09l-269.48 42.92c0 0-15.64 49.57 0 76.85l277.06-46.94c0 0-6.58-34.9-7.58-72.83z"/>
		</clipPath>
		<clipPath clipPathUnits="userSpaceOnUse" id="cp3">
			<path d="m729.9 484.12l-209.17 44.12c0 0-31.94 59.89 8.98 96.82l202.61-55.9z"/>
		</clipPath>
		<clipPath clipPathUnits="userSpaceOnUse" id="cp4">
			<path d="m721.34 400.49l-238.54 30.94c0 0-27.95 52.9 6.99 74.86l233.55-37.93c0 0-2-70.86-2-67.87z"/>
		</clipPath>
		<clipPath clipPathUnits="userSpaceOnUse" id="cp5">
			<path d="m675.17 262.17l-91.8 25.22v47.9 5.99l90.53-28.69z"/>
		</clipPath>
		<clipPath clipPathUnits="userSpaceOnUse" id="cp6">
			<path d="m512.25 236.73c0 0-16.18 22.56-3.43 45.61l162.83-26.97 2.45-47.09z"/>
		</clipPath>
	</defs>
	<style>
		.s0 { opacity: .7;fill: #8bcde5 } 
		.s1 { fill: #8bcde5 } 
		.s2 { fill: #ffffff } 
		.s3 { fill: #4d82a3 } 
		.s4 { fill: #dc903c } 
		.s5 { opacity: .1;fill: #2b3448 } 
		.s6 { fill: #74471b } 
		.s7 { fill: #5ca28b } 
		.s8 { fill: #2b3448 } 
		.s9 { opacity: .2;mix-blend-mode: overlay;fill: #ffffff } 
		.s10 { fill: #ecb751 } 
		.s11 { fill: #de6c6b } 
		.s12 { opacity: .4;fill: #2b3448 } 
		.s13 { opacity: .1;fill: #74471b } 
		.s14 { opacity: .1;fill: #ffffff } 
		.s15 { fill: none;stroke: #2b3448;stroke-miterlimit:10;stroke-width: 2 } 
		.s16 { opacity: .3;fill: #dc903c } 
		.s17 { opacity: .2;fill: #2b3448 } 
		.s18 { opacity: .3;fill: #74471b } 
	</style>
	<g id="OBJECTS">
		<g id="&lt;Group&gt;">
			<path id="&lt;Path&gt;" class="s0" d="m65.3 780c0 39.8 193 72.1 431.1 72.1 238 0 431-32.3 431-72.1 0-39.8-193-72.1-431-72.1-238.1 0-431.1 32.3-431.1 72.1z"/>
			<g id="&lt;Group&gt;" style="opacity: .3">
				<path id="&lt;Path&gt;" class="s1" d="m496.4 707.9c-232.5 0-421.9 30.8-430.7 69.3-22-40.5-8.8-97.7 28.8-123.2 9.6-6.4 20.4-11.1 28.9-19.1 26.1-24.6 19.2-67.8 25.9-103.7 7.1-38.5 33.2-72.7 67.7-88.8 36.9-17.1 82.1-14.8 113.9-40.7 28.2-23 38.2-61.9 54.5-95.1 37.3-76 115.3-126.9 197.2-136.2 81.8-9.2 165.7 21.1 229.2 75.4 33.9 29.1 63.1 66 75.5 109.8 18.7 66.4-3.4 136.8-10.9 205.6-1.1 9.4-1.8 19.1 1.1 28.1 6.8 20.8 29.9 29.8 44.9 45.2 30.5 31.5 24 83.4 15.4 127.1l-10.4 18c-1.4-39.6-193.8-71.7-431-71.7z"/>
			</g>
		</g>
		<path id="&lt;Path&gt;" class="s0" d="m913.7 783.7c0 7-32.6 12.7-72.8 12.7-40.2 0-72.8-5.7-72.8-12.7 0-7 32.6-12.6 72.8-12.6 40.2 0 72.8 5.6 72.8 12.6z"/>
		<g id="&lt;Group&gt;">
			<path id="&lt;Path&gt;" class="s1" d="m195.3 221.9l-9.2-27.3-27.6-8.5 28.3-9.7 8.9-28.5 9.3 27.3 27.5 8.5-28.8 10.4z"/>
			<path id="&lt;Path&gt;" class="s1" d="m739.7 317.6l-9.3-27.3-27.5-8.5 28.2-9.8 9-28.4 9.3 27.2 27.5 8.6-28.8 10.4z"/>
			<path id="&lt;Path&gt;" class="s2" d="m823.4 335.4l-4.7-13.9-14.1-4.3 14.4-5 4.6-14.5 4.7 13.9 14.1 4.4-14.7 5.3z"/>
			<path id="&lt;Path&gt;" class="s2" d="m184.4 557.2l-4.7-13.9-14-4.4 14.3-4.9 4.6-14.6 4.7 13.9 14.1 4.4-14.7 5.3z"/>
			<path id="&lt;Path&gt;" class="s1" d="m774.5 369.5l-4.8-13.9-14-4.3 14.4-5 4.6-14.5 4.7 13.9 14 4.3-14.7 5.3z"/>
			<path id="&lt;Path&gt;" class="s1" d="m269.9 307.1l-4.8-13.9-14-4.3 14.4-5 4.6-14.5 4.7 13.9 14 4.4-14.7 5.3z"/>
			<path id="&lt;Path&gt;" class="s1" d="m236.9 242.8c0 2.2-1.9 4.1-4.2 4.1-2.2 0-4.1-1.9-4.1-4.1 0-2.3 1.9-4.2 4.1-4.2 2.3 0 4.2 1.9 4.2 4.2z"/>
			<path id="&lt;Path&gt;" class="s1" d="m877.9 438.8c0 2.3-1.8 4.2-4.1 4.2-2.3 0-4.1-1.9-4.1-4.2 0-2.3 1.8-4.1 4.1-4.1 2.3 0 4.1 1.8 4.1 4.1z"/>
			<path id="&lt;Path&gt;" class="s1" d="m870.6 493.6c0 2.3-1.8 4.1-4.1 4.1-2.3 0-4.1-1.8-4.1-4.1 0-2.3 1.8-4.1 4.1-4.1 2.3 0 4.1 1.8 4.1 4.1z"/>
			<path id="&lt;Path&gt;" class="s1" d="m823.2 484.1c0 2.3-1.9 4.1-4.2 4.1-2.3 0-4.1-1.8-4.1-4.1 0-2.3 1.8-4.1 4.1-4.1 2.3 0 4.2 1.8 4.2 4.1z"/>
			<path id="&lt;Path&gt;" class="s1" d="m169.4 398.4c0 2.3-1.9 4.2-4.2 4.2-2.3 0-4.1-1.9-4.1-4.2 0-2.2 1.8-4.1 4.1-4.1 2.3 0 4.2 1.9 4.2 4.1z"/>
			<path id="&lt;Path&gt;" class="s1" d="m144.6 368.1c0 2.3-1.9 4.2-4.2 4.2-2.3 0-4.1-1.9-4.1-4.2 0-2.2 1.8-4.1 4.1-4.1 2.3 0 4.2 1.9 4.2 4.1z"/>
			<path id="&lt;Path&gt;" class="s1" d="m715.1 214.4c0 2.3-1.8 4.2-4.1 4.2-2.3 0-4.2-1.9-4.2-4.2 0-2.2 1.9-4.1 4.2-4.1 2.3 0 4.1 1.9 4.1 4.1z"/>
		</g>
		<g id="&lt;Group&gt;">
			<g id="&lt;Group&gt;">
				<g id="&lt;Group&gt;" style="opacity: .5">
					<path id="&lt;Path&gt;" class="s3" d="m276.3 547.9c-21.1-30.6-40.7-62.3-57.4-95.5-13.4-26.6-24.9-54.3-33.6-82.8q1-29.5 2-59c0.8-23.4 0.5-49.7-16-66.3-4.1-4-9.8-7.4-15.3-5.9-6.4 1.8-9.3 9.2-10.6 15.8-8.1 40.7 9.7 81.9 33.5 116.4q4.1 13.5 9 26.7c12.8 34.7 29.5 67.8 48.3 99.5 10.7 18 22 35.5 33.9 52.7 1.1 1.6 6.7-0.8 6.2-1.6z"/>
				</g>
				<g id="&lt;Group&gt;" style="opacity: .5">
					<path id="&lt;Path&gt;" class="s3" d="m256.8 532.3c-10.1-25.5-18.9-51.6-25.4-78.2-5.2-21.4-8.8-43.2-10.3-65.2q5.6-21.1 11.2-42.1c4.5-16.7 8.7-35.7-0.4-50.3-2.3-3.6-5.8-7-10-6.8-5 0.2-8.3 5-10.3 9.5-12.6 28-6.7 60.6 4.7 89.4q0.7 10.3 2 20.7c3.5 27 9.9 53.6 18.2 79.6 4.6 14.7 9.9 29.2 15.6 43.5 0.5 1.3 4.9 0.6 4.7-0.1z"/>
				</g>
				<g id="&lt;Group&gt;" style="opacity: .5">
					<path id="&lt;Path&gt;" class="s3" d="m333.5 536.4c-26.4-7.6-52.4-16.6-77.4-27.8-20.1-9-39.6-19.4-57.9-31.6q-13.2-17.4-26.5-34.7c-10.4-13.8-22.9-28.7-40-30.4-4.2-0.5-9.1 0.3-11.5 3.7-2.9 4-1.1 9.6 1.2 14 14.5 27.1 43.9 42.3 73.6 50.9q8.6 5.8 17.6 11.1c23.5 13.8 48.5 25 74.1 34.3 14.5 5.3 29.2 10 44 14.3 1.4 0.4 3.5-3.6 2.8-3.8z"/>
				</g>
			</g>
			<g id="&lt;Group&gt;">
				<g id="&lt;Group&gt;" style="opacity: .5">
					<path id="&lt;Path&gt;" class="s3" d="m679.8 593.8c24.6-20.9 48.2-43.1 69.6-67.2 17.3-19.4 33.1-40 46.9-62q5.8-25 11.6-50c4.6-19.8 10.7-41.8 28.3-52 4.3-2.5 9.9-4.1 14.2-1.5 5 2.9 5.7 9.8 5.4 15.6-2.5 36-26.6 66.6-54.4 90.2q-6.5 10.4-13.6 20.4c-18.5 26.2-39.9 50.2-62.9 72.7-13 12.6-26.5 24.8-40.3 36.5-1.2 1.1-5.4-2.2-4.8-2.7z"/>
				</g>
				<g id="&lt;Group&gt;" style="opacity: .5">
					<path id="&lt;Path&gt;" class="s3" d="m699.7 585.1c14.2-19.2 27.4-39.1 38.9-60 9.1-16.8 17.1-34.2 23.3-52.3q0-19 0-37.9c0-15 0.8-31.9 11.7-42.2 2.7-2.5 6.4-4.5 10-3.4 4.1 1.3 5.8 6.1 6.4 10.3 4.3 26.3-8 52.4-24 73.9q-2.9 8.6-6.4 17c-9 21.9-20.3 42.8-33.1 62.7-7.2 11.3-14.9 22.3-22.9 33.1-0.7 0.9-4.3-0.7-3.9-1.2z"/>
				</g>
				<g id="&lt;Group&gt;" style="opacity: .5">
					<path id="&lt;Path&gt;" class="s3" d="m634.4 571.3c23.8-0.5 47.7-2.2 71.2-5.9 18.9-3.1 37.6-7.4 55.7-13.6q15-11.6 30-23.2c11.9-9.1 25.7-18.8 40.5-16.5 3.6 0.6 7.5 2.3 8.8 5.8 1.5 4-1.3 8.3-4.2 11.4-18.2 19.5-46.3 25.7-73.2 26.2q-8.6 2.9-17.3 5.3c-22.8 6.3-46.3 10.1-69.9 12.2-13.4 1.2-26.8 1.8-40.1 2.1-1.3 0-2.1-3.8-1.5-3.8z"/>
				</g>
			</g>
		</g>
		<g id="&lt;Group&gt;">
			<path id="&lt;Path&gt;" class="s4" d="m911.9 716.6c0-5.1-0.6-10-1.7-14.8h-1.1c-2-8.9-28.7-15.9-61.3-15.9-33.9 0-61.4 7.6-61.4 17q0 0.4 0.1 0.8c-0.8 4.2-1.3 8.5-1.3 12.9 0 25.8 15.4 48 37.6 57.9-5.4 1.5-8.7 3.4-8.7 5.5 0 4.5 15.4 8.2 34.4 8.2 19.1 0 34.5-3.7 34.5-8.2 0-2.1-3.3-4-8.7-5.5 22.2-9.9 37.6-32.1 37.6-57.9z"/>
			<path id="&lt;Path&gt;" class="s5" d="m911.9 716.6c0-5.1-0.6-10-1.7-14.8h-1.1c-0.7-2.9-4-5.6-9.3-7.9 3.2 4.9 5.3 10.6 5.8 17.2 1.3 16.5-8.4 33.9-22.1 42.8-13.9 9-31.7 9.5-47.3 5.5-22.7-5.9-42.7-21.9-51-42.8q0 0 0 0c0 25.8 15.4 48 37.6 57.9-5.4 1.5-8.7 3.4-8.7 5.5 0 4.5 15.4 8.2 34.4 8.2 19.1 0 34.5-3.7 34.5-8.2 0-2.1-3.3-4-8.7-5.5 22.2-9.9 37.6-32.1 37.6-57.9z"/>
			<path id="&lt;Path&gt;" class="s6" d="m897.6 702.9c0 7.6-22.3 13.7-49.8 13.7-27.4 0-49.7-6.1-49.7-13.7 0-7.6 22.3-13.7 49.7-13.7 27.5 0 49.8 6.1 49.8 13.7z"/>
			<g id="&lt;Group&gt;">
				<g id="&lt;Group&gt;">
					<path id="&lt;Path&gt;" class="s7" d="m848.2 709.6c-9.6-5.9-19.3-12-26.6-20.6-7.3-8.6-11.9-20.3-9.3-31.3 1.3-5.4 4.2-10.5 4.1-16-0.3-11.7-12.9-18.5-19.8-27.8-8.4-11.3-8.3-26.5-8-40.5 5.2 15.3 22.7 21.8 35.1 32.2 13.7 11.4 21.4 28.7 24.8 46.3 3.3 17.5 2.6 35.6 1.8 53.4z"/>
				</g>
				<g id="&lt;Group&gt;" style="opacity: .2">
					<path id="&lt;Path&gt;" class="s8" d="m833.9 634.5c-9.3-23.6-32.4-36.9-45.3-57.4-0.3 12.9 0.4 26.5 8 36.8 6.9 9.3 19.5 16.1 19.8 27.8 0.1 5.5-2.8 10.6-4.1 16-2.6 11 2 22.7 9.3 31.3 5.7 6.7 13 11.9 20.5 16.7 1.5-24.3 0.6-48.8-8.2-71.2z"/>
				</g>
				<g id="&lt;Group&gt;">
					<path id="&lt;Path&gt;" class="s7" d="m848.2 709.5c-12.6-15.2-15.9-37.5-8.2-55.6 5.3-12.5 15.4-23.3 16.7-36.8 0.6-6.7-1-13.4-1.2-20.2-0.2-9.4 2.4-18.8 7.5-26.7-2.7 27.8 17.1 53.4 17 81.3-0.1 21.4-31.8 58-31.8 58z"/>
				</g>
				<g id="&lt;Group&gt;" style="opacity: .2">
					<path id="&lt;Path&gt;" class="s8" d="m863.2 604.9c0.6 21.8-2.6 42.3-7.6 63.5-2.7 11.3-3.7 21.3-1.8 31.4 15.8-10.6 26.1-29.2 26.2-48.3 0.1-23.5-14-45.5-16.8-68.4-0.6 7.2-0.2 14.6 0 21.8z"/>
				</g>
				<g id="&lt;Group&gt;">
					<g id="&lt;Group&gt;">
						<path id="&lt;Path&gt;" class="s7" d="m848 709.4c0.1-17.8 0.9-37.5 13.1-50.5 10.3-11 26.9-15 35.3-27.5 7.4-10.8 6.4-24.9 9.5-37.6 3-13 10.5-24.8 20.9-33.1q1.7 19.4 3.5 38.9c1.4 15.5 2.7 31.5-2.1 46.3-5.1 15.8-16.7 28.7-30.1 38.3-13.5 9.6-28.8 16.2-43.9 22.7z"/>
					</g>
					<g id="&lt;Group&gt;" style="opacity: .2">
						<path id="&lt;Path&gt;" class="s8" d="m927.8 571.7c-4.9 13-7 27.1-11.3 40.3-6.7 20-17.7 36.5-32 51.8-12.8 13.7-22.8 24.4-27 41.7 14-6.1 28.1-12.4 40.6-21.3 13.4-9.6 25-22.5 30.1-38.3 4.8-14.8 3.5-30.8 2.1-46.3q-1.3-13.9-2.5-27.9z"/>
					</g>
				</g>
			</g>
		</g>
		<path id="&lt;Path&gt;" class="s1" d="m210.4 722.2l-43.4 14.2c0 0 338.7 98.1 354.5 104.4 15.8 6.3 262.7-79.1 262.7-79.1l-69.6-22.2z"/>
		<g id="&lt;Group&gt;">
			<path id="&lt;Path&gt;" class="s8" d="m340.9 808.3l-210.9-49.6c-6.1-1.4-12.2 2.4-13.7 8.4-1.4 6.1 2.4 12.2 8.5 13.7l210.9 49.6z"/>
			<path id="&lt;Path&gt;" class="s9" d="m116.2 771.8c0.8 4.3 4.1 7.9 8.6 9l210.9 49.6 1.6-6.7z"/>
			<path id="&lt;Path&gt;" class="s10" d="m155.4 764.5l-5.4 22.7-5.8-1.4 5.3-22.7z"/>
			<path id="&lt;Path&gt;" class="s10" d="m251.2 787l-5.3 22.7-5.9-1.4 5.4-22.7z"/>
			<path id="&lt;Path&gt;" class="s10" d="m211.1 783.7l-0.7 3-67.3-15.9 0.7-2.9z"/>
			<path id="&lt;Path&gt;" class="s10" d="m335.7 830.4l20.4-3.3 1.7-7.3-16.9-11.5z"/>
		</g>
		<g id="&lt;Group&gt;">
			<path id="&lt;Path&gt;" class="s11" d="m760.8 756.7l-17.2-8c-21.9-12-7.9-83.9-7.9-83.9l-196.4 56.8-332.6-82.7c-11 41.6-2 96.3-2 96.3l307.5 84-0.1 0.3 26.9 7c229.6-66.9 221.8-69.8 221.8-69.8z"/>
			<path id="&lt;Path&gt;" class="s11" d="m543.7 723.1l220.5-65.9-332.3-70.9-225.2 52.6z"/>
			<path id="&lt;Path&gt;" class="s12" d="m211.4 732.3c-1.6-6.6-2.6-13.4-3.3-20.2-0.7-6.8-0.9-13.6-0.8-20.5 0.2-6.8 0.8-13.7 2.1-20.4 1.2-6.8 3.1-13.4 5.9-19.7-0.9 3.3-2 6.6-2.5 9.9-0.8 3.3-1.3 6.7-1.8 10-0.8 6.7-1.4 13.5-1.6 20.3-0.2 6.7 0 13.5 0.3 20.3q0.2 5.1 0.7 10.2c0.2 3.4 0.6 6.7 1 10.1z"/>
			<path id="&lt;Path&gt;" class="s12" d="m522 815.8c-1.7-6.6-2.7-13.4-3.4-20.2-0.7-6.8-0.9-13.7-0.7-20.5 0.2-6.9 0.8-13.7 2-20.5 1.3-6.7 3.2-13.4 5.9-19.6-0.8 3.3-1.9 6.5-2.5 9.9-0.8 3.3-1.2 6.6-1.8 10-0.8 6.7-1.4 13.4-1.5 20.2-0.2 6.8 0 13.6 0.3 20.4q0.2 5 0.7 10.1c0.2 3.4 0.6 6.8 1 10.2z"/>
			<path id="&lt;Path&gt;" class="s12" d="m225.2 649.8c24 5.9 47.9 12 71.8 18.2l71.8 18.7 71.6 19.3 35.7 9.8 35.7 10-36-9-35.9-9.2-71.7-18.8-71.6-19.2c-23.8-6.5-47.7-13.1-71.4-19.8z"/>
			<g id="&lt;Group&gt;" style="opacity: .4">
				<g id="&lt;Group&gt;">
					<path id="&lt;Compound Path&gt;" fill-rule="evenodd" class="s2" d="m286.9 751.8l-65.9-19.3 3.8-75.4 64.8 17.2zm-63.7-20l61.5 17.9 2.6-74.8-60.5-16z"/>
				</g>
				<g id="&lt;Group&gt;">
					<path id="&lt;Compound Path&gt;" fill-rule="evenodd" class="s2" d="m255.2 705.1l-30.7-27.9 32.3-10.5 31.5 27.9zm-27.7-27.1l27.7 25.2 29.9-9.5-28.4-25.2z"/>
				</g>
				<g id="&lt;Group&gt;">
					<path id="&lt;Compound Path&gt;" fill-rule="evenodd" class="s2" d="m253.2 725.1l-30.8-28.3 32.5-10.5 31.5 28.3zm-27.7-27.4l27.8 25.5 30-9.4-28.5-25.5z"/>
				</g>
				<g id="&lt;Group&gt;">
					<path id="&lt;Compound Path&gt;" fill-rule="evenodd" class="s2" d="m252.5 741.6l-30.9-28.7 32.6-10.4 31.7 28.7zm-27.9-27.8l27.9 25.9 30.1-9.3-28.6-25.9z"/>
				</g>
			</g>
			<g id="&lt;Group&gt;" style="opacity: .4">
				<g id="&lt;Group&gt;">
					<path id="&lt;Compound Path&gt;" fill-rule="evenodd" class="s2" d="m359.6 772.8l-65.9-19.3 3.8-75.4 64.8 17.2zm-63.7-20l61.5 17.9 2.6-74.8-60.5-16z"/>
				</g>
				<g id="&lt;Group&gt;">
					<path id="&lt;Compound Path&gt;" fill-rule="evenodd" class="s2" d="m327.9 726.1l-30.7-27.9 32.3-10.5 31.5 27.9zm-27.7-27.1l27.7 25.2 29.9-9.5-28.4-25.2z"/>
				</g>
				<g id="&lt;Group&gt;">
					<path id="&lt;Compound Path&gt;" fill-rule="evenodd" class="s2" d="m326 746.1l-30.8-28.3 32.4-10.5 31.6 28.3zm-27.8-27.4l27.8 25.5 30-9.4-28.5-25.5z"/>
				</g>
				<g id="&lt;Group&gt;">
					<path id="&lt;Compound Path&gt;" fill-rule="evenodd" class="s2" d="m325.2 762.6l-30.9-28.7 32.6-10.4 31.7 28.7zm-27.9-27.8l28 25.9 30-9.3-28.5-25.9z"/>
				</g>
			</g>
			<g id="&lt;Group&gt;" style="opacity: .4">
				<g id="&lt;Group&gt;">
					<path id="&lt;Compound Path&gt;" fill-rule="evenodd" class="s2" d="m434.4 793.8l-65.9-19.3 3.8-75.4 64.8 17.2zm-63.7-20l61.5 17.9 2.6-74.7-60.5-16.1z"/>
				</g>
				<g id="&lt;Group&gt;">
					<path id="&lt;Compound Path&gt;" fill-rule="evenodd" class="s2" d="m402.7 747.1l-30.7-27.9 32.3-10.5 31.5 27.9zm-27.7-27.1l27.7 25.2 29.8-9.5-28.3-25.2z"/>
				</g>
				<g id="&lt;Group&gt;">
					<path id="&lt;Compound Path&gt;" fill-rule="evenodd" class="s2" d="m400.7 767.1l-30.8-28.3 32.5-10.5 31.5 28.4zm-27.7-27.5l27.8 25.6 30-9.4-28.5-25.6z"/>
				</g>
				<g id="&lt;Group&gt;">
					<path id="&lt;Compound Path&gt;" fill-rule="evenodd" class="s2" d="m400 783.6l-30.9-28.7 32.6-10.4 31.7 28.7zm-27.9-27.8l27.9 25.9 30.1-9.3-28.6-25.9z"/>
				</g>
			</g>
			<g id="&lt;Group&gt;" style="opacity: .4">
				<g id="&lt;Group&gt;">
					<path id="&lt;Compound Path&gt;" fill-rule="evenodd" class="s2" d="m509.3 813.8l-65.9-19.3 3.7-75.5 64.9 17.2zm-63.7-20l61.4 18 2.7-74.8-60.5-16z"/>
				</g>
				<g id="&lt;Group&gt;">
					<path id="&lt;Compound Path&gt;" fill-rule="evenodd" class="s2" d="m477.5 767l-30.7-27.8 32.4-10.6 31.4 27.9zm-27.6-27l27.7 25.1 29.8-9.5-28.3-25.1z"/>
				</g>
				<g id="&lt;Group&gt;">
					<path id="&lt;Compound Path&gt;" fill-rule="evenodd" class="s2" d="m475.6 787l-30.8-28.3 32.4-10.4 31.6 28.3zm-27.7-27.5l27.8 25.6 29.9-9.4-28.4-25.6z"/>
				</g>
				<g id="&lt;Group&gt;">
					<path id="&lt;Compound Path&gt;" fill-rule="evenodd" class="s2" d="m474.9 803.5l-30.9-28.7 32.6-10.3 31.6 28.7zm-27.8-27.8l27.9 25.8 30-9.3-28.5-25.9z"/>
				</g>
			</g>
			<g id="&lt;Clip Group&gt;" clip-path="url(#cp1)">
				<path id="&lt;Path&gt;" class="s2" d="m545.5 719.6c0 0-26.1 52.4-8.2 101.7l214.1-69.3c0 0-13.9-47.2 3-88.8z"/>
				<path id="&lt;Path&gt;" class="s13" d="m708.9 757.7c-29.6 11.3-59 20.2-90.7 22.6-31.4 2.3-63.6-5.4-82.9-31.1-4.7 19.5-7.4 46.2 2 72.1l214.1-69.3c0 0-1-3.6-2.2-9.7-13.6 4.8-26.9 10.2-40.3 15.4z"/>
				<g id="&lt;Group&gt;" style="opacity: .2">
					<g id="&lt;Group&gt;">
						<path id="&lt;Path&gt;" class="s6" d="m526 740.6l-0.4-1.5 232.4-51.6 0.3 1.5z"/>
					</g>
					<g id="&lt;Group&gt;">
						<path id="&lt;Path&gt;" class="s6" d="m526.7 757.2l-0.3-1.6 231.5-55.2 0.3 1.5z"/>
					</g>
					<g id="&lt;Group&gt;">
						<path id="&lt;Path&gt;" class="s6" d="m524.9 774.3l-0.4-1.6 231.5-55.2 0.4 1.5z"/>
					</g>
					<g id="&lt;Group&gt;">
						<path id="&lt;Path&gt;" class="s6" d="m524.3 789.3l-0.4-1.6 230.6-58.8 0.4 1.5z"/>
					</g>
					<g id="&lt;Group&gt;">
						<path id="&lt;Path&gt;" class="s6" d="m527.1 809.2l-0.4-1.5 228.6-66.2 0.4 1.6z"/>
					</g>
				</g>
			</g>
			<path id="&lt;Path&gt;" class="s14" d="m532.6 729.3l-327-85.1c0 0-5.2 22-2.1 34.7l327 87.2 9.5-35.7z"/>
			<path id="&lt;Path&gt;" class="s5" d="m204.7 735.2l334.3 91.3c0 0-7.4-30.9-7.4-34.1l-328.1-83.1c0 0-1.9 20.3 1.2 25.9z"/>
		</g>
		<g id="&lt;Group&gt;">
			<path id="&lt;Path&gt;" class="s10" d="m266.2 557.2c0 0-6 36.9-1 60.9 0 0 207.6 112.8 222.6 116.7 15 4 301.4-50.9 301.4-50.9l-37.9-8.9-1.8-67.6 34.7-6.3-241.5-96.8z"/>
			<path id="&lt;Path&gt;" class="s2" d="m761.3 605.1l-269.5 42.9c0 0-15.7 49.6 0 76.9l277-47c0 0-6.5-34.9-7.5-72.8z"/>
			<path id="&lt;Path&gt;" class="s13" d="m625 694.4c-46.6 1.8-97.6 0.2-138.7-20.8-2.3 16.3-2.8 36.9 5.5 51.3l277-47c0 0-0.1-0.5-0.2-1.5-47.4 9.4-95.4 16.2-143.6 18z"/>
			<g id="&lt;Group&gt;" style="opacity: .3">
				<g id="&lt;Group&gt;">
					<path id="&lt;Path&gt;" class="s15" d="m288.3 570.4l-11.8-4.6-5.9 24.4 5.3 28.8 11.5 6 6.5-24.2z"/>
					<path id="&lt;Path&gt;" class="s8" d="m284.7 584.4l-5.2-2.2-2.7 10.8 2.4 13 5.2 2.5 2.8-10.7z"/>
					<path id="&lt;Path&gt;" class="s15" d="m294 628.4l-23.7-12.3 0.4-53.1 24.4 9.6z"/>
				</g>
				<g id="&lt;Group&gt;">
					<path id="&lt;Path&gt;" class="s15" d="m361.1 599l-16.1-6.3-8.9 27.5 6.2 33.4 15.5 8 9.9-27z"/>
					<path id="&lt;Path&gt;" class="s8" d="m355.6 614.8l-7.1-3-4 12.2 2.8 15.1 6.9 3.4 4.3-12.1z"/>
					<path id="&lt;Path&gt;" class="s15" d="m366.7 666.3l-31.9-16.6 2.5-60.6 33.1 13z"/>
				</g>
				<g id="&lt;Group&gt;">
					<path id="&lt;Path&gt;" class="s15" d="m463.6 639.3l-23.2-9.1-14 31.3 7.4 39.7 22 11.5 15.8-30.5z"/>
					<path id="&lt;Path&gt;" class="s8" d="m454.9 657.4l-10.2-4.3-6.4 13.8 3.3 18.1 10 4.8 6.7-13.7z"/>
					<path id="&lt;Path&gt;" class="s15" d="m468.7 719.4l-45.4-23.6 6.1-70.6 47.8 18.7z"/>
				</g>
				<path id="&lt;Path&gt;" class="s8" d="m315.8 640l-5.1-2.7 1.6-58 5.3 2.1z"/>
				<path id="&lt;Path&gt;" class="s8" d="m395 681.3l-6.8-3.6 4.6-66.9 7.1 2.8z"/>
			</g>
			<path id="&lt;Path&gt;" class="s14" d="m266.2 557.2l225.6 90.8c0 0-7.2 27.5-6.7 34l-221.4-102.9c0 0 1.2-19.6 2.5-21.9z"/>
			<path id="&lt;Path&gt;" class="s16" d="m265.2 618.1l222.6 116.7c0 0-9.2-13.5-8.6-37.8l-215.5-98.5c0 0 0.3 17.1 1.5 19.6z"/>
			<g id="&lt;Clip Group&gt;" clip-path="url(#cp2)">
				<g id="&lt;Group&gt;">
					<g id="&lt;Group&gt;" style="opacity: .4">
						<path id="&lt;Path&gt;" class="s6" d="m480.1 662.5l-0.2-1 288.4-47.9 0.2 1.1z"/>
					</g>
					<g id="&lt;Group&gt;" style="opacity: .4">
						<path id="&lt;Path&gt;" class="s6" d="m481.1 674.5l-0.2-1 288.4-47.9 0.1 1.1z"/>
					</g>
					<g id="&lt;Group&gt;" style="opacity: .4">
						<path id="&lt;Path&gt;" class="s6" d="m480 687.8l-0.2-1.1 288.4-47.8 0.1 1z"/>
					</g>
					<g id="&lt;Group&gt;" style="opacity: .4">
						<path id="&lt;Path&gt;" class="s6" d="m480.5 701l-0.1-1.1 288.3-47.8 0.2 1.1z"/>
					</g>
					<g id="&lt;Group&gt;" style="opacity: .4">
						<path id="&lt;Path&gt;" class="s6" d="m481.1 715.5l-0.2-1.1 288.4-47.8 0.2 1z"/>
					</g>
				</g>
			</g>
		</g>
		<g id="&lt;Group&gt;">
			<path id="&lt;Path&gt;" class="s7" d="m231.3 449.4c0 0-22 43.9-1 93.8l295.4 91.8 223.6-61.3-18.9-4.7-4.2-83.8 21.1-5.9-279.5-83.8z"/>
			<path id="&lt;Path&gt;" class="s2" d="m729.9 484.1l-209.2 44.1c0 0-31.9 59.9 9 96.9l202.6-55.9z"/>
			<path id="&lt;Path&gt;" class="s13" d="m642.9 503.1c7.6 0 15.2-0.3 22.8-0.9 3.4-0.2 6.8-0.6 10.2-1q0.9-0.1 1.4-0.2 1.2-0.1 2.3-0.3c12.9-2.2 25.6-4.9 38.2-8.2q6.1-1.6 12.2-3.4l-0.1-5-89.9 19q1.4 0 2.9 0z"/>
			<path id="&lt;Path&gt;" class="s13" d="m638.7 577.5c-30-0.3-59.9-3.5-89.8-5.5-13.3-1-26.6-2.3-39.5-5-2 18.8 1.3 40.9 20.3 58.1l202.6-55.9-0.1-4.2c-30.5 7.6-61.4 12.8-93.5 12.5z"/>
			<path id="&lt;Path&gt;" class="s12" d="m234.2 538.7c-3.1-6.6-4.9-13.7-6.1-20.8-1.3-7.2-1.8-14.5-1.6-21.8 0-1.8 0.2-3.6 0.2-5.4l0.2-2.7 0.3-2.8 0.7-5.4 1-5.3c0.6-3.6 1.7-7.1 2.6-10.6 1-3.5 2.3-6.9 3.5-10.3-1.7 7.1-3.5 14.1-4.5 21.2l-0.8 5.3-0.5 5.3-0.2 2.7-0.2 2.7c-0.1 1.8-0.2 3.6-0.2 5.4-0.2 7.1 0.2 14.3 1.1 21.4 0.4 3.6 1 7.1 1.7 10.6 0.8 3.6 1.7 7 2.8 10.5z"/>
			<path id="&lt;Path&gt;" class="s12" d="m503.5 620.7c-3.1-6.5-4.9-13.6-6.1-20.8-1.3-7.1-1.7-14.4-1.6-21.7 0-1.8 0.2-3.6 0.3-5.5l0.1-2.7 0.3-2.7 0.7-5.4 1-5.4c0.6-3.5 1.7-7 2.6-10.5 1-3.5 2.3-6.9 3.5-10.3-1.7 7-3.4 14-4.5 21.1l-0.7 5.4-0.6 5.3-0.2 2.7-0.2 2.7c0 1.8-0.2 3.5-0.2 5.3-0.2 7.2 0.2 14.4 1.1 21.5 0.4 3.6 1 7.1 1.8 10.6 0.7 3.5 1.6 7 2.7 10.4z"/>
			<g id="&lt;Group&gt;" style="opacity: .2">
				<path id="&lt;Path&gt;" class="s8" d="m258.9 518.5l41.8 7.1-36.5-28.7-20 2.7z"/>
				<path id="&lt;Path&gt;" class="s8" d="m264.7 495.6l39.6 30.9-25.4-47.2-21.1-8.9z"/>
				<path id="&lt;Path&gt;" class="s8" d="m258.8 520.7l44.6 6.8-39.5 14.8-18.8-8.6z"/>
			</g>
			<path id="&lt;Path&gt;" class="s17" d="m323 483.4c0 0-18.4 43.2-6.4 84.8l46.3 16c0 0-10.3-69.6 10.4-85.6z"/>
			<path id="&lt;Path&gt;" class="s17" d="m426.1 514.6c0 0-19.2 47.2-6.4 86.4l14.4 5.6c0 0-4-65.6 10.4-87.2z"/>
			<g id="&lt;Clip Group&gt;" clip-path="url(#cp3)">
				<g id="&lt;Group&gt;" style="opacity: .3">
					<g id="&lt;Group&gt;">
						<path id="&lt;Path&gt;" class="s6" d="m511.4 537.9l-0.2-1.1 240.1-52.1 0.2 1z"/>
					</g>
					<g id="&lt;Group&gt;">
						<path id="&lt;Path&gt;" class="s6" d="m507.8 551.1l-0.3-1 239.8-53.7 0.3 1z"/>
					</g>
					<g id="&lt;Group&gt;">
						<path id="&lt;Path&gt;" class="s6" d="m505.8 565.6l-0.2-1.1 238.8-57.7 0.3 1z"/>
					</g>
					<g id="&lt;Group&gt;">
						<path id="&lt;Path&gt;" class="s6" d="m504.8 577.3l-0.3-1.1 238.9-57.7 0.2 1z"/>
					</g>
					<g id="&lt;Group&gt;">
						<path id="&lt;Path&gt;" class="s6" d="m505.1 588.9l-0.3-1 238.9-57.8 0.2 1.1z"/>
					</g>
					<g id="&lt;Group&gt;">
						<path id="&lt;Path&gt;" class="s6" d="m506.7 599.9l-0.2-1.1 238.8-57.7 0.3 1z"/>
					</g>
					<g id="&lt;Group&gt;">
						<path id="&lt;Path&gt;" class="s6" d="m517.3 620.4l-0.3-1 238-60.9 0.3 1z"/>
					</g>
					<g id="&lt;Group&gt;">
						<path id="&lt;Path&gt;" class="s6" d="m511.8 609.4l-0.3-1.1 238.9-57.7 0.2 1z"/>
					</g>
				</g>
			</g>
			<path id="&lt;Path&gt;" class="s14" d="m231.3 449.4l289.4 78.8c0 0-11.4 28-13 41.6l-286.3-88c0 0 4.6-27.3 9.9-32.4z"/>
			<path id="&lt;Path&gt;" class="s5" d="m227.8 542.6l297.9 92.4c0 0-16.6-6.5-22-35.6l-282.3-85.6c0 0 4 24 6.4 28.8z"/>
		</g>
		<g id="&lt;Group&gt;">
			<path id="&lt;Path&gt;" class="s8" d="m254.2 351.6c0 0-6.9 59.9-1 75.8l222.6 90.9 268.5-46.9-27-6-3.1-64.6 23.6-2.6-268-78.6z"/>
			<path id="&lt;Path&gt;" class="s2" d="m721.3 400.5l-238.5 30.9c0 0-27.9 52.9 7 74.9l233.5-37.9c0 0-2-70.9-2-67.9z"/>
			<path id="&lt;Path&gt;" class="s13" d="m627.6 480.8c-29.3-0.2-59-2.7-88.1-5.2-17.4-1.5-35.3-3.5-51-11.6-5.1-2.6-9.7-5.9-14.1-9.5-4 17.1-4.4 39.4 15.4 51.8l159.4-25.9q-10.9 0.4-21.6 0.4z"/>
			<g id="&lt;Group&gt;" style="opacity: .5">
				<path id="&lt;Path&gt;" class="s10" d="m272.3 397.7c0 0.7-0.9 0.9-1.9 0.5-1-0.4-1.7-1.2-1.7-1.9 0-0.6 0.9-0.8 1.8-0.4 1 0.3 1.8 1.2 1.8 1.8z"/>
				<path id="&lt;Path&gt;" class="s10" d="m301 389.8c0 0.7-0.9 0.9-2 0.6-1.1-0.4-1.9-1.3-1.9-2 0.1-0.6 1-0.9 2-0.5 1.1 0.4 1.9 1.3 1.9 1.9z"/>
				<path id="&lt;Path&gt;" class="s10" d="m299 427c-0.1 0.7-1 0.9-2 0.4-1.1-0.4-1.9-1.3-1.9-2 0.1-0.6 1-0.8 2-0.4 1.1 0.4 1.9 1.3 1.9 2z"/>
				<path id="&lt;Path&gt;" class="s10" d="m329.4 420c0 0.7-1 0.9-2.1 0.4-1.2-0.4-2-1.3-2-2 0-0.7 1-0.9 2.1-0.5 1.2 0.5 2.1 1.4 2 2.1z"/>
				<path id="&lt;Compound Path&gt;" fill-rule="evenodd" class="s10" d="m341.1 390.9l-4.3 64.1-76.6-32.4 1.3-28.5-0.3-0.3 0.3-0.1 1.3-30zm-58.1-3.6l14.2 17.6 0.6-10.9 2.3 0.8-0.6 11.3 17.4-6.9-14.8-19.4zm17.5-9l-34.6-12.1 15.8 19.5zm17.9 20.3l18.7-7.5-33.4-11.6zm2.3 17.2l-0.1 1.4-19.6-7.5 16.1 19.9 18.4-6-17.3-22.6-17.8 7zm-39.1-27.9l-17.7 7 15.6 19.2 16.2-6.5-19.5-7.5 0.1-1.4 20.2 7.8zm-0.7 27.7l16.5 20.3 18.2-5.9-16.3-20.2-0.7 13-2.2-0.9 0.6-12.6zm-1.4 0.5l-16 6.4 32.2 13.5zm19.6 21.3l34.1 14.4-16.2-20.1zm35.5 13.5l1.7-25.5-17.7 5.7zm1.9-29.1l2-29.1-18.6 7.4zm-72.9-29.2l16.6-6.5-15.5-19.2zm-0.1 3.7l-1.1 24.3 15.7-6.3z"/>
			</g>
			<g id="&lt;Group&gt;" style="opacity: .5">
				<path id="&lt;Path&gt;" class="s10" d="m386.9 439.4c0 0.7-0.8 0.9-1.8 0.5-1-0.4-1.8-1.2-1.8-1.9 0.1-0.6 0.9-0.8 1.9-0.4 1 0.3 1.8 1.2 1.7 1.8z"/>
				<path id="&lt;Path&gt;" class="s10" d="m415.6 431.5c0 0.7-0.9 0.9-2 0.6-1-0.4-1.9-1.3-1.8-2 0-0.7 0.9-0.9 2-0.5 1 0.4 1.9 1.2 1.8 1.9z"/>
				<path id="&lt;Path&gt;" class="s10" d="m413.6 468.7c-0.1 0.7-0.9 0.8-2 0.4-1-0.4-1.9-1.3-1.8-2 0-0.6 0.9-0.8 1.9-0.4 1.1 0.4 1.9 1.3 1.9 2z"/>
				<path id="&lt;Path&gt;" class="s10" d="m444 461.7c0 0.7-1 0.9-2.1 0.4-1.1-0.4-2-1.3-2-2 0.1-0.7 1-0.9 2.2-0.5 1.1 0.5 2 1.4 1.9 2.1z"/>
				<path id="&lt;Compound Path&gt;" fill-rule="evenodd" class="s10" d="m455.7 432.6l-4.3 64.1-76.6-32.4 1.3-28.5-0.3-0.3 0.3-0.1 1.3-30zm-58-3.6l14.2 17.6 0.6-10.9 2.2 0.8-0.6 11.3 17.4-7-14.8-19.3zm17.5-9l-34.6-12.1 15.8 19.5zm17.9 20.3l18.7-7.5-33.3-11.7zm2.2 17.3l-0.1 1.4-19.5-7.5 16 19.9 18.5-6-17.4-22.7-17.7 7.1zm-39.2-27.9l-17.7 7 15.7 19.2 16.2-6.5-19.5-7.5v-1.4l20.2 7.7zm-0.7 27.8l16.5 20.3 18.2-5.9-16.3-20.2-0.7 13-2.2-0.9 0.7-12.6zm-1.4 0.5l-16.1 6.4 32.2 13.5zm19.6 21.3l34.1 14.4-16.2-20.2zm35.6 13.6l1.6-25.5-17.7 5.7zm2-29.1l1.9-29.1-18.6 7.4zm-72.9-29.2l16.7-6.6-15.5-19.1zm-0.2 3.7l-1.1 24.3 15.8-6.3z"/>
			</g>
			<g id="&lt;Clip Group&gt;" clip-path="url(#cp4)">
				<g id="&lt;Group&gt;">
					<g id="&lt;Group&gt;" style="opacity: .3">
						<path id="&lt;Path&gt;" class="s6" d="m468.6 463l-0.2-1.1 270.5-36 0.1 1z"/>
					</g>
					<g id="&lt;Group&gt;" style="opacity: .3">
						<path id="&lt;Path&gt;" class="s6" d="m468.6 479.9l-0.2-1.1 270.5-36 0.1 1z"/>
					</g>
					<g id="&lt;Group&gt;" style="opacity: .3">
						<path id="&lt;Path&gt;" class="s6" d="m468.8 498.3l-0.2-1.1 270.1-39 0.1 1.1z"/>
					</g>
					<g id="&lt;Group&gt;" style="opacity: .3">
						<path id="&lt;Path&gt;" class="s6" d="m468.3 444l-0.1-1 271-31.9 0.1 1z"/>
					</g>
				</g>
			</g>
			<path id="&lt;Path&gt;" class="s10" d="m533.9 435.4c0 0 30.4 45.1 23.6 101.4l14.7-12.4 11.3 11.3c0 0 1.1-76.6-19.2-102.5z"/>
			<path id="&lt;Path&gt;" class="s14" d="m254.2 351.6c0 0 223.3 71.4 223.3 74.8 0 3.4-14.6 27.1-11.2 49.6l-214.1-84.5z"/>
		</g>
		<g id="&lt;Group&gt;">
			<path id="&lt;Path&gt;" class="s4" d="m714.1 412.1h-406.2v-64.8h406.2z"/>
			<path id="&lt;Path&gt;" class="s5" d="m714.1 412.1h-406.2v-13.9h406.2z"/>
			<path id="&lt;Path&gt;" class="s14" d="m714.1 371.2h-406.2v-23.9h406.2z"/>
			<path id="&lt;Path&gt;" class="s18" d="m365.6 347.3h-35.7v64.8h35.7z"/>
			<path id="&lt;Path&gt;" class="s18" d="m397.2 347.3h-6.1v64.8h6.1z"/>
			<path id="&lt;Path&gt;" class="s18" d="m625.9 347.3h-203.2v64.8h203.2z"/>
			<path id="&lt;Path&gt;" class="s18" d="m676.6 347.3h-25.2v64.8h25.2z"/>
			<path id="&lt;Path&gt;" class="s4" d="m307.9 347.3l-3-50.9 373.3-3 35.9 53.9z"/>
		</g>
		<g id="&lt;Group&gt;">
			<g id="&lt;Group&gt;">
				<path id="&lt;Path&gt;" class="s11" d="m326.9 261.4v57.9l257.5 28 97.8-31-13-5 1-46.9 10-4-240.6-21.9z"/>
				<path id="&lt;Path&gt;" class="s2" d="m675.2 262.2l-91.8 25.2v47.9 6l90.5-28.7z"/>
				<g id="&lt;Group&gt;">
					<g id="&lt;Group&gt;">
						<path id="&lt;Path&gt;" class="s10" d="m564.2 300.1l-227.6-25.9 0.2-2.1 227.6 25.9z"/>
					</g>
					<g id="&lt;Group&gt;">
						<path id="&lt;Path&gt;" class="s10" d="m563.1 313.7l-227.7-26 0.3-2.1 227.6 26z"/>
					</g>
					<g id="&lt;Group&gt;">
						<path id="&lt;Path&gt;" class="s10" d="m563.1 327.2l-227.7-25.9 0.3-2.1 227.6 25.9z"/>
					</g>
					<g id="&lt;Group&gt;">
						<path id="&lt;Path&gt;" class="s10" d="m563.1 339.6l-227.7-25.9 0.3-2.1 227.6 25.9z"/>
					</g>
				</g>
				<g id="&lt;Clip Group&gt;" clip-path="url(#cp5)">
					<g id="&lt;Group&gt;" style="opacity: .4">
						<path id="&lt;Path&gt;" class="s6" d="m578.1 295.8l-0.2-1 110-29.6 0.3 1z"/>
					</g>
					<g id="&lt;Group&gt;" style="opacity: .4">
						<path id="&lt;Path&gt;" class="s6" d="m579.3 309.3l-0.3-1 110.1-29.6 0.2 1z"/>
					</g>
					<g id="&lt;Group&gt;" style="opacity: .4">
						<path id="&lt;Path&gt;" class="s6" d="m579.5 321.3l-0.3-1 110-29.6 0.3 1z"/>
					</g>
					<g id="&lt;Group&gt;" style="opacity: .4">
						<path id="&lt;Path&gt;" class="s6" d="m580.6 333.7l-0.3-1 110.1-29.6 0.2 1z"/>
					</g>
				</g>
				<path id="&lt;Path&gt;" class="s5" d="m326.9 319.3l257.5 28-0.9-23.4-255.8-25.9z"/>
				<path id="&lt;Path&gt;" class="s14" d="m326.9 261.4l256.5 26 0.1 13.9-255.8-22.5z"/>
			</g>
			<path id="&lt;Path&gt;" class="s13" d="m583.4 287.4v53.9l81.2-26.4c0 0-80.2 23.9-81.2-27.5z"/>
		</g>
		<g id="&lt;Group&gt;">
			<path id="&lt;Path&gt;" class="s3" d="m289.8 199c0 0-11.8 24-1.5 47l213.8 40.8 181-29-13.7-2.4 2.4-47.1 10.8-2.5-212.8-35.3c0 0-172.7 18.7-180 28.5z"/>
			<g id="&lt;Clip Group&gt;" clip-path="url(#cp6)">
				<path id="&lt;Path&gt;" class="s2" d="m512.3 236.7c0 0-16.2 22.6-3.5 45.6l162.9-26.9 2.4-47.1z"/>
				<path id="&lt;Path&gt;" class="s13" d="m595.2 267.9c-18.5-0.3-38.5-0.8-56.5-5.6-11.7-3.2-21.6-9.4-31.4-16-3.4 8.7-6.1 22.3 1.5 36l86.9-14.3q-0.2-0.1-0.5-0.1z"/>
				<g id="&lt;Group&gt;" style="opacity: .4">
					<path id="&lt;Path&gt;" class="s6" d="m494.5 246.6l-0.1-1 194.9-31.5 0.2 1z"/>
				</g>
				<g id="&lt;Group&gt;" style="opacity: .4">
					<path id="&lt;Path&gt;" class="s6" d="m494.5 257.9l-0.1-1 194.9-31.6 0.2 1.1z"/>
				</g>
				<g id="&lt;Group&gt;" style="opacity: .4">
					<path id="&lt;Path&gt;" class="s6" d="m494.5 269.2l-0.1-1.1 194.9-31.5 0.2 1z"/>
				</g>
				<g id="&lt;Group&gt;" style="opacity: .4">
					<path id="&lt;Path&gt;" class="s6" d="m494.5 278.2l-0.1-1 194.9-31.6 0.2 1z"/>
				</g>
			</g>
			<g id="&lt;Group&gt;">
				<path id="&lt;Path&gt;" class="s10" d="m508.6 197.3c10.3 1.8 11.7 4.3 3 5.7-8.7 1.4-24.1 1.2-34.5-0.6-10.4-1.7-11.8-4.3-3.1-5.7 8.7-1.4 24.2-1.1 34.6 0.6z"/>
				<g id="&lt;Group&gt;">
					<path id="&lt;Path&gt;" class="s10" d="m464.3 196.2c-4.4 0.2-9.6 0.2-14.4-0.1-2.4-0.2-4.8-0.4-6.7-0.7-5.1-0.9-6-2.1-8.1-3.1-4.5-2.2-16.3-4.1-29.5-4.9 11.3-0.2 23.8-0.3 34.4 0.8 11.5 1.3 16.7 3.6 22.1 5.6 2.1 0.8 4.3 1.5 6.4 2.3z"/>
				</g>
				<g id="&lt;Group&gt;">
					<path id="&lt;Path&gt;" class="s10" d="m518.1 204.1c4.4-0.2 9.5-0.2 14.3 0.1 2.4 0.2 4.8 0.4 6.7 0.7 5.1 0.8 5.9 2 8.1 3.1 4.4 2.2 16.1 4.1 29.2 4.8-11.1 0.2-23.5 0.4-34.1-0.7-11.5-1.3-16.6-3.6-22-5.6-2.1-0.8-4.3-1.6-6.4-2.3z"/>
				</g>
				<g id="&lt;Group&gt;">
					<path id="&lt;Path&gt;" class="s10" d="m485.4 194.7c-4.7-0.4-8.7-1-11.5-1.8-1.3-0.4-2.4-0.8-2.6-1.2-0.8-1.1 3.7-1.8 6.4-2.7 5.7-1.8 4.1-4.3-3.9-6.2 10.5 1.2 21.8 2.6 25.8 4.5 4.3 2.1-1.4 4-5.6 5.8-1.6 0.7-3 1.4-4.6 2.1z"/>
				</g>
				<g id="&lt;Group&gt;">
					<path id="&lt;Path&gt;" class="s10" d="m497.1 205.6c4.6 0.4 8.7 1 11.4 1.8 1.3 0.4 2.4 0.8 2.6 1.2 0.8 1-3.7 1.8-6.4 2.7-5.7 1.8-4.1 4.3 3.9 6.2-10.5-1.2-21.7-2.6-25.8-4.5-4.3-2.1 1.4-4 5.6-5.8 1.6-0.7 3-1.4 4.6-2.1z"/>
				</g>
				<g id="&lt;Group&gt;">
					<path id="&lt;Path&gt;" class="s10" d="m506.7 196c-2.6-0.8-3.8-1.6-3.3-2.4 0.2-0.4 0.8-0.8 2.1-1.1 3.5-0.8 10.5-0.8 16.3-1.1 11.9-0.5 20-2.4 20.4-4.5 4.8 1.9 9.6 4 5.9 5.7-4 1.8-16.5 2.5-27.3 3.2-4 0.3-8 0.6-12 0.9z"/>
				</g>
				<g id="&lt;Group&gt;">
					<path id="&lt;Path&gt;" class="s10" d="m475.7 204.3c2.6 0.8 3.8 1.7 3.3 2.4-0.2 0.4-0.8 0.8-2.1 1.1-3.5 0.8-10.5 0.8-16.3 1.1-11.9 0.6-20.1 2.4-20.5 4.5-4.8-1.9-9.7-4-5.9-5.7 4-1.8 16.6-2.5 27.3-3.2 4.1-0.3 8.1-0.6 12.2-0.9z"/>
				</g>
				<g id="&lt;Group&gt;">
					<path id="&lt;Path&gt;" class="s10" d="m523 199.9c1.4-0.7 4.3-1.3 8.3-1.6 1.9-0.2 4.2-0.3 6.6-0.3 6.3 0 12.3 0.9 18.2 1.5 12.3 1.2 27.2 1.3 37.2 0.2-4.7 1.6-10.4 3.3-21.1 3.7-11.6 0.4-24.8-0.8-36.9-1.8-4.6-0.3-9.3-0.7-13.9-1z"/>
				</g>
				<g id="&lt;Group&gt;">
					<path id="&lt;Path&gt;" class="s10" d="m459.4 200.4c-1.4 0.7-4.4 1.3-8.3 1.6-2 0.2-4.2 0.3-6.7 0.3-6.4 0-12.3-0.9-18.3-1.5-12.4-1.2-27.4-1.3-37.6-0.2 4.8-1.6 10.5-3.3 21.4-3.7 11.7-0.4 24.9 0.8 37.2 1.8 4.6 0.3 9.2 0.7 13.8 1z"/>
				</g>
			</g>
			<path id="&lt;Path&gt;" class="s10" d="m315.4 203.6c0 0-14.4 28.3 1.1 48l18.1 3.2c0 0-9.6-33.6 4.3-48z"/>
			<path id="&lt;Path&gt;" class="s10" d="m442.8 228.3c0 0-14.3 28.3 1.1 48l18.1 3.2c0 0-9.6-33.6 4.3-48z"/>
			<path id="&lt;Path&gt;" class="s14" d="m289.8 199l222.5 37.7c0 0-8.8 13.5-9.6 24l-218.9-39.7c0 0 1.4-18.2 6-22z"/>
			<g id="&lt;Group&gt;" style="opacity: .4">
				<path id="&lt;Path&gt;" class="s8" d="m499.9 235.9l-197.2-34.9 0.4-2.1 197.2 34.9z"/>
			</g>
			<path id="&lt;Path&gt;" class="s17" d="m501.2 279q-0.8-2.9-1.4-5.8l-215.2-36 3.7 8.8 213.8 40.8c-1.3-2.5-1.3-5.4-0.9-7.8z"/>
			<path id="&lt;Path&gt;" class="s14" d="m318.6 191c0 0 82.6-14.2 151.2-20.5l126.1 20.5z"/>
		</g>
	</g>
</svg>