<svg version="1.2" xmlns="http://www.w3.org/2000/svg" viewBox="0 0 1000 102" width="1000" height="102">
	<title>5639952-ai</title>
	<style>
		.s0 { fill: #e3f0fa } 
		.s1 { fill: #ffffff } 
		.s2 { fill: #bedef7 } 
	</style>
	<g id="OBJECTS">
		<g id="&lt;Group&gt;">
			<g id="&lt;Group&gt;">
				<g id="&lt;Group&gt;">
					<path id="&lt;Path&gt;" class="s0" d="m91.7-780.4c0 0-51.4 2.7-49.3 10.8 2 8.1 49.8 8.1 49.8 8.1 0 0 9.2 9.7 24.1 9.7 14.9 0 22.6-3.2 22.6-3.2 0 0 9.2 5.4 20 5.9 10.8 0.5 20-5.9 20-5.9 0 0 8.7 5.9 25.2 5.9 16.4 0 25.6-10.3 28.7-10.3 3.1 0 44.2 0.6 44.2-5.9 0-6.5-26.7-7-26.7-7 0 0-6.2-16.2-20.1-19.5-13.8-3.2-19.5 3.8-21 3.3-1.5-0.6-8.2-22.2-29.8-22.7-21.5-0.5-27.2 11.9-27.2 11.9 0 0-12.3-23.8-35.9-17.3-23.6 6.5-24.6 36.2-24.6 36.2z"/>
				</g>
				<path id="&lt;Path&gt;" class="s1" d="m230.2-791.8c-13.8-3.2-19.5 3.8-21 3.3-1.5-0.6-8.2-22.2-29.8-22.7-21.5-0.5-27.2 11.9-27.2 11.9 0 0-12.3-23.8-35.9-17.3-13.8 3.8-19.8 15.4-22.5 24.5 4.4-5.9 12.5-13.9 24.2-14.1 18.4-0.3 23.5 23 23.5 23 0 0 3.1-8.1 10.2-9 7.1-0.9 10.2 3.6 10.2 3.6 0 0 4.9-13.7 19.6-12.8 14.8 0.9 17 17.9 17 17.9 0 0 3.4-1.8 7.7-1.2 4.2 0.6 7.6 7.1 7.6 7.1 0 0 6-8.3 16.5-8.3 5.9 0 10.5 1.5 13.3 2.8-3.2-3.7-7.6-7.3-13.4-8.7z"/>
				<g id="&lt;Group&gt;">
					<path id="&lt;Path&gt;" class="s2" d="m237.1-768.3c0 0-4.8 6.9-12.8 7.7-7.9 0.9-10.5-5.3-10.5-5.3 0 0-1.7 11.9-15.8 11.3-14.2-0.6-18.8-14.6-18.8-14.6 0 0-3.9 15.5-23.8 14-19.8-1.5-20.4-13.7-20.4-13.7 0 0-11.6 13.4-26.7 10.7-15-2.7-19.6-12.5-19.6-12.5 0 0-19.5 5.4-32.6 2.4-4.6-1.1-6.9-3.4-7.9-6.1-3.9 1.4-6.3 2.9-5.8 4.8 2 8.1 49.8 8.1 49.8 8.1 0 0 9.2 9.7 24.1 9.7 14.9 0 22.6-3.2 22.6-3.2 0 0 9.2 5.4 20 5.9 10.8 0.5 20-5.9 20-5.9 0 0 8.7 5.9 25.2 5.9 16.4 0 25.6-10.3 28.7-10.3 3.1 0 44.2 0.6 44.2-5.9 0-1.1-0.8-2-2.1-2.8-5.2 2-13.7 4.6-23.6 4.6-16.7 0-14.2-4.8-14.2-4.8z"/>
				</g>
				<g id="&lt;Group&gt;">
					<g id="&lt;Group&gt;">
						<path id="&lt;Path&gt;" class="s0" d="m299.4-699.6c0 0-56.9 1.3-50.8 11.5 6 10.2 49.6 10.2 49.6 10.2 0 0 8.5 19.1 42.4 21.7 33.9 2.5 48.5-8.9 48.5-8.9 0 0 15.5 12.1 42.4 10.2 24.2-1.8 30.2-9 30.2-9 0 0 11.4 10.3 33.4 5.8 22.1-4.4 29.7-16.9 29.7-16.9 0 0 38.7 2.2 42.9-9.4 4.2-11.6-38.6-13-38.6-13 0 0 0-35.7-28.4-43.7-21.3-6-28.5 0.9-28.5 0.9 0 0-5.1-55.8-62.8-61.6-61.8-6.3-74.7 55.3-74.7 55.3 0 0-20.8-5.3-32.2 14.3-9 15.4-3.1 32.6-3.1 32.6z"/>
					</g>
					<path id="&lt;Path&gt;" class="s1" d="m364.3-714.2c0 0 0.6-21 15.9-25.6 15.4-4.5 20.5 10.3 20.5 10.3 0 0 10.8-9.1 21.1-5.1 10.2 3.9 6.8 23.9 6.8 23.9 0 0 0-13.1-11.9-16-12-2.8-20 12.5-20 12.5 0 0-0.5-18.2-14.2-17.6-13.7 0.6-18.2 17.6-18.2 17.6z"/>
					<path id="&lt;Path&gt;" class="s1" d="m500.7-741.1c-21.3-6-28.5 0.9-28.5 0.9 0 0-5.1-55.8-62.8-61.6-61.8-6.3-74.7 55.3-74.7 55.3 0 0-20.8-5.3-32.2 14.3-9 15.4-3.1 32.6-3.1 32.6 0 0 2.2-30.3 16.8-35.6 14.7-5.3 27.6 9.3 27.6 9.3 0 0 0.5-30 20.6-43.7 20.1-13.6 35.5 12.8 35.5 12.8 0 0 8.8-15 30.6-13.2 21.8 1.8 16.8 37.9 16.8 37.9 0 0 8.3-5.3 18-3.1 9.6 2.2 12.5 13.2 12.5 13.2 0 0 13-11.9 29.7-6.1 16.8 5.7 21.6 30.7 21.6 30.7 0 0 0-35.7-28.4-43.7z"/>
					<g id="&lt;Group&gt;">
						<path id="&lt;Path&gt;" class="s2" d="m567.7-684.4c0.7-2 0-3.7-1.6-5.2-3.4 3.4-9.4 7.5-18.8 7.7-15.9 0.5-24.7-3.5-24.7-3.5 0 0-10 15-29.7 18.5-19.7 3.5-32.2-14.5-32.2-14.5 0 0-11.8 14.9-28.5 13.2-16.8-1.8-24.3-19-24.3-19 0 0-6.7 8.4-18.4 9.3-11.7 0.9-18.4-12.4-18.4-12.4 0 0-17.2 25.2-39.4 24.3-22.2-0.9-35.6-23.4-35.6-23.4 0 0-18.8 8.4-32.2 3.5-6.8-2.4-6.4-6.4-4.4-9.8-7.8 1.7-13 4.1-10.9 7.6 6 10.2 49.6 10.2 49.6 10.2 0 0 8.5 19.1 42.4 21.7 33.9 2.5 48.5-8.9 48.5-8.9 0 0 15.5 12.1 42.4 10.2 24.2-1.8 30.2-9 30.2-9 0 0 11.4 10.3 33.4 5.8 22.1-4.4 29.7-16.9 29.7-16.9 0 0 38.7 2.2 42.9-9.4z"/>
					</g>
				</g>
				<g id="&lt;Group&gt;">
					<g id="&lt;Group&gt;">
						<path id="&lt;Path&gt;" class="s0" d="m523.6-774.7c0 0-33.5 0.7-25.6 8.3 7.9 7.6 32.9 4.1 32.9 4.1 0 0 9.2 12.5 25 12.5 15.7 0 23-5.5 23-5.5 0 0 11 6 27.6 4.8 14.1-1 21.7-9.7 21.7-9.7 0 0 47.4-2.8 34.2-9-13.1-6.2-30.2-4.1-30.2-4.1 0 0 0.6-35.3-30.3-43-33.7-8.3-46 21.5-46 21.5 0 0-10.4-7-21.1-1.4-13.1 6.9-11.2 21.5-11.2 21.5z"/>
					</g>
					<path id="&lt;Path&gt;" class="s1" d="m601.9-816.3c-33.7-8.3-46 21.5-46 21.5 0 0-10.4-7-21.1-1.4-8.9 4.7-10.9 12.9-11.2 17.7 2.7-3.6 8.6-10.2 16-11.8 10.2-2.2 17.3 8.9 17.3 8.9 0 0 5.2-20.8 22.5-25.6 17.3-4.8 27.2 15.6 27.2 15.6 0 0 4.6-8.2 12-6.3 4.3 1.1 8.4 4.8 11.1 9-3.2-10.5-10.6-23.3-27.8-27.6z"/>
					<g id="&lt;Group&gt;">
						<path id="&lt;Path&gt;" class="s2" d="m662.4-769.2q-1.6-0.7-3.3-1.3c-4.1 3.2-10.4 6.4-19 5.8-16.6-1.1-16.6-5.9-16.6-5.9 0 0-4.5 14.1-21.8 12.6-17.3-1.5-22.3-14.8-22.3-14.8 0 0-4.9 17-23.3 16.7-18.3-0.4-26.1-14.1-26.1-14.1 0 0-15.1 8.5-24.3 4.8-3.4-1.4-5.1-3.7-5.8-6.1-3 1.2-4.3 2.8-1.9 5.1 7.9 7.6 32.9 4.1 32.9 4.1 0 0 9.2 12.5 25 12.5 15.7 0 23-5.5 23-5.5 0 0 11 6 27.6 4.8 14.1-1 21.7-9.7 21.7-9.7 0 0 47.4-2.8 34.2-9z"/>
					</g>
				</g>
				<g id="&lt;Group&gt;">
					<g id="&lt;Group&gt;">
						<path id="&lt;Path&gt;" class="s0" d="m718.5-773.8c0 0-44.2 0-37.9 9.3 6.3 9.3 34.7 6.6 34.7 6.6 0 0 3.2 16.2 25.3 20.2 22.1 4 33.4-8.2 33.4-8.2 0 0 7.1 8.5 26 8.5 18.9 0 27-5.8 27-5.8 0 0 10.9 6.8 26.5 5.3 17.7-1.7 27.1-7.3 27.1-7.3 0 0 5 7.3 23.4 5.9 13.9-1 22.4-16.4 22.4-16.4 0 0 32.5-1.5 31.2-7.5-1.2-5.9-30.9-5.3-30.9-5.3 0 0-0.9-20.6-20.1-26.6-15.3-4.8-24.1 1.4-24.1 1.4 0 0-2.6-22.3-23.9-23.9-24.7-1.9-27.8 21.2-27.8 21.2 0 0-6.9-8.7-17-4-11.2 5.3-8.2 16.7-8.2 16.7 0 0-6.5-9.5-19.6-6.7-8.1 1.8-12 7.3-12 7.3 0 0-7.1-21.5-29-19.9-25.8 1.9-26.5 29.2-26.5 29.2z"/>
					</g>
					<path id="&lt;Path&gt;" class="s1" d="m906.6-795.1c-15.3-4.8-24.1 1.4-24.1 1.4 0 0-2.6-22.3-23.9-23.9-24.7-1.9-27.8 21.2-27.8 21.2 0 0-6.9-8.7-17-4-11.2 5.3-8.2 16.7-8.2 16.7 0 0-6.5-9.5-19.6-6.7-8.1 1.8-12 7.3-12 7.3 0 0-7.1-21.5-29-19.9-25.8 1.9-26.5 29.2-26.5 29.2 0 0 12-20.8 28.4-19.1 16.4 1.7 21.4 19.4 21.4 19.4 0 0 9.5-12.1 20.3-10.7 10.8 1.3 13.8 13.1 13.8 13.1 0 0 2-4.9 6.9-5.9 4.9-1 10.2 1 10.2 1 0 0-6.3-8.2 2.9-13.4 9.2-5.2 17.7 2 17.7 2 0 0 1-15.1 17.8-17.9 16.7-2.8 21.3 17.9 21.3 17.9 0 0 15.7-7.9 30.5-1 14.8 6.9 17 19.9 17 19.9 0 0-0.9-20.6-20.1-26.6z"/>
					<g id="&lt;Group&gt;">
						<path id="&lt;Path&gt;" class="s2" d="m953.6-766.1c-1.2 1.5-3 3.1-6.1 4.6-9.2 4.5-23.7 0.7-24.7 0.7-0.9 0-3.6 10.1-14.4 12.1-10.8 2.1-10.2-8.6-10.2-8.6 0 0-3.3 5.5-12.1 5.9-8.9 0.3-13.8-7.3-13.8-7.3 0 0-1.3 11.1-19 12.8-17.8 1.7-29.9-9.3-29.9-9.3 0 0-8.2 10.3-20.7 9.3-12.5-1.1-13.4-10.4-13.4-10.4 0 0-3.6 4.9-11.5 5.2-7.9 0.4-12.8-5.9-12.8-5.9 0 0-4.9 13.8-24.6 12.1-19.7-1.7-24-20.4-24-20.4 0 0-13.1 4.2-23.6 1.1-5-1.5-6.8-4-7.3-6.2-4.3 1.3-6.7 3.2-4.9 5.9 6.3 9.3 34.7 6.7 34.7 6.7 0 0 3.2 16.1 25.3 20.1 22.1 4 33.4-8.2 33.4-8.2 0 0 7.1 8.5 26 8.5 18.9 0 27-5.8 27-5.8 0 0 10.9 6.8 26.5 5.3 17.7-1.7 27.1-7.3 27.1-7.3 0 0 5 7.3 23.4 5.9 13.9-1 22.4-16.4 22.4-16.4 0 0 32.5-1.5 31.2-7.5-0.2-1.2-1.8-2.2-4-2.9z"/>
					</g>
				</g>
				<g id="&lt;Group&gt;">
					<g id="&lt;Group&gt;">
						<path id="&lt;Path&gt;" class="s0" d="m768.5-577.3c0 0-34.9 0.5-23.6 7.5 11.2 6.9 36.7 5.9 36.7 5.9 0 0 4.7 10.9 24.4 12.9 19.8 2 25.5-5 25.5-5 0 0 7.3 7 24.2 7.7 18.3 0.7 23.8-5.7 23.8-5.7 0 0 6.9 7.9 24.4 4 15.2-3.4 15.1-7.9 17.9-7.9 2.9 0 37.7 0 35.8-6-1.9-5.9-28.2-8.9-28.2-8.9 0 0 2.7-31.4-23.6-42.3-26.4-10.8-43.3 4.7-43.3 4.7 0 0-2.8-8-13.2-9-10.3-0.9-16.9 8-16.9 8 0 0-13.3-19-39.8-7.6-27.9 11.9-24.1 41.7-24.1 41.7z"/>
					</g>
					<g id="&lt;Group&gt;">
						<path id="&lt;Path&gt;" class="s2" d="m955.2-566.4c-1.6 2.1-5.4 5.2-14.5 5.9-14.2 1.1-23.2-4-23.2-4 0 0-2.1 9.9-18.7 11.7-16.6 1.8-23.2-12-23.2-12 0 0-4.8 11.3-21.1 10.5-16.3-0.7-16.3-14.9-16.3-14.9 0 0-2.7 4.7-8.3 5.1-5.5 0.4-8.3-6.2-8.3-6.2 0 0-2.4 12-21.5 10.2-19-1.8-19.3-11.6-19.3-11.6 0 0-15.3 3.6-30.5-0.8-2.2-0.6-4-1.3-5.4-1.9-2.7 1-3.4 2.5 0 4.6 11.2 6.9 36.7 5.9 36.7 5.9 0 0 4.7 10.9 24.4 12.9 19.8 2 25.5-5 25.5-5 0 0 7.3 7 24.2 7.7 18.3 0.7 23.8-5.7 23.8-5.7 0 0 6.9 7.9 24.4 4 15.2-3.4 15.1-7.9 17.9-7.9 2.9 0 37.7 0 35.8-6-0.3-0.9-1.2-1.7-2.4-2.5z"/>
					</g>
					<path id="&lt;Path&gt;" class="s1" d="m903.6-607.8c14.4 6.4 21 13.6 24 18.4-2.6-9.3-8.5-20.1-21.8-25.7-26.4-10.8-43.3 4.7-43.3 4.7 0 0-2.8-8-13.2-9-10.3-0.9-16.9 8-16.9 8 0 0-13.3-19-39.8-7.6-17.6 7.5-22.6 22.1-23.9 31.9 3.2-5.1 12.9-18.9 26.6-22.1 17-4.1 24.2 8.7 24.2 8.7 0 0 4.9-4.7 9.4-4.7 4.5 0 6.9 5.8 6.9 5.8 0 0 8-9.1 17-8.8 9 0.4 12.8 7.7 12.8 7.7 0 0 14.2-17.9 38-7.3z"/>
				</g>
				<g id="&lt;Group&gt;">
					<g id="&lt;Group&gt;">
						<path id="&lt;Path&gt;" class="s0" d="m383.2-537c0 0-35.8 2.2-35.1 11.1 0.7 8.9 49.9 10.4 49.9 10.4 0 0 8.4 13.3 24.6 16.2 16.1 3 30.2-5.9 30.2-5.9 0 0 1.7 6.6 14.3 9 15.2 2.9 22.3-6.8 22.3-6.8 0 0 11.2 8.9 21 8.2 9.9-0.8 16.2-7.4 16.2-7.4 0 0 9.8 10.3 42.9 10.3 33 0 40.8-9.6 40.8-9.6 0 0 19.6 6.7 37.2 3 17.6-3.7 25.3-9.6 25.3-9.6 0 0 12.5 9.8 30.2 4.4 13-4 18.3-9.6 18.3-9.6 0 0 41.5 0 41.5-8.2 0-8.1-33.8-9.6-33.8-9.6 0 0 2.7-105.3-73.8-121.3-69.2-14.4-93.8 45-93.8 45 0 0-4.3-15.1-20.7-13.9-11.9 0.9-16.9 15.5-16.9 15.5 0 0-10.8-16.2-32.6-7.3-21.7 8.9-18 26.6-18 26.6 0 0-18.3-27.4-45.7-14.8-27.4 12.5-20.4 41.4-20.4 41.4 0 0-9.7-8.5-19.9 1.8-8.6 8.6-4 21.1-4 21.1z"/>
					</g>
					<path id="&lt;Path&gt;" class="s1" d="m526.3-556.2c0 0 3.5-24.1 22.2-26.5 18.6-2.5 25 10.8 25 10.8 0 0 9.9-18.2 25.1-17.7 15.2 0.5 20.2 14.7 20.2 14.7 0 0 12.2-10.8 25-5.4 12.8 5.4 14.3 18.2 14.3 18.2 0 0-8.4-9.3-18.2-11.8-9.8-2.4-25.6 15.3-25.6 15.3 0 0-3.4-18.2-18.2-19.7-14.7-1.5-22.6 18.7-22.6 18.7 0 0-9.3-19.7-25-15.8-15.8 4-22.2 19.2-22.2 19.2z"/>
					<g id="&lt;Group&gt;">
						<path id="&lt;Path&gt;" class="s2" d="m703-503.7c13-4 18.3-9.6 18.3-9.6 0 0 41.5 0 41.5-8.2 0-1.1-0.7-2.2-2-3.1-3.2 2.6-9 5.9-17.3 5.5-13.5-0.5-23.7-6.7-23.7-6.7 0 0-2.1 10.1-19.8 11.8-17.8 1.7-25.3-18.1-25.3-18.1 0 0-1.6 18.7-30.1 22.1-28.4 3.4-37-19.2-37-19.2 0 0-4.3 24.3-38.2 28.2-33.8 4-45.6-24.8-45.6-24.8 0 0-4.3 21.4-19.3 18-15.1-3.3-22.6-13.5-22.6-13.5 0 0 3.8 16.9-9.7 16.4-13.4-0.6-23.1-10.8-23.1-10.8 0 0-4.3 9.1-21.5 9.1-17.1 0-37.6-19.2-37.6-19.2 0 0-7.5 3.4-25.2 1.7-7.5-0.8-11.9-3.1-14.5-5.6-1.5 1.1-2.3 2.4-2.2 3.8 0.7 8.9 49.9 10.4 49.9 10.4 0 0 8.4 13.3 24.6 16.2 16.1 3 30.2-5.9 30.2-5.9 0 0 1.7 6.6 14.3 9 15.2 2.9 22.3-6.8 22.3-6.8 0 0 11.2 8.9 21 8.2 9.9-0.8 16.2-7.4 16.2-7.4 0 0 9.8 10.3 42.9 10.3 33 0 40.8-9.6 40.8-9.6 0 0 19.6 6.7 37.2 3 17.6-3.7 25.3-9.6 25.3-9.6 0 0 12.5 9.8 30.2 4.4z"/>
					</g>
					<path id="&lt;Path&gt;" class="s1" d="m721.4-583.7c-8.6-28.9-27-60.5-66.2-68.7-69.2-14.4-93.8 45.1-93.8 45.1 0 0-4.3-15.2-20.7-14-11.9 0.9-16.9 15.5-16.9 15.5 0 0-10.8-16.2-32.6-7.3-21.7 8.9-18 26.6-18 26.6 0 0-18.3-27.4-45.7-14.8-14.1 6.4-19.1 17.2-20.6 26.1 5.4-7.1 15.2-17.5 26.1-19 16.7-2.3 34.4 25.4 34.4 25.4 0 0 2.7-7.9 8.6-9 5.9-1.2 11.3 3.4 11.3 3.4 0 0-7-20.4 12.3-24.9 19.4-4.5 27.4 4.5 27.4 4.5 0 0 5.4-13.5 18.8-11.9 13.4 1.7 21.5 12.5 21.5 12.5 0 0 22-37.9 62.3-34.5 40.3 3.4 46.7 29.4 46.7 29.4 0 0 10.8-9 24.2-4 8.2 3.2 15.7 10.8 20.9 19.6z"/>
				</g>
				<g id="&lt;Group&gt;">
					<g id="&lt;Group&gt;">
						<path id="&lt;Path&gt;" class="s0" d="m67.9-597.4c0 0-30.8 1.6-24.8 10.3 6 8.7 33.8 4.8 33.8 4.8 0 0 7.6 13.4 26.4 15.8 18.8 2.4 31.5-8.7 31.5-8.7 0 0 11.3 9.5 28.6 9.5 17.3 0 27.1-7.1 27.1-7.1 0 0 12 9.5 29.3 9.5 17.3 0 26.3-7.2 26.3-7.2 0 0 9.8 6.4 24.8 5.6 15.1-0.8 20.3-5.6 20.3-5.6 0 0 9.8 3.2 24.1 0 14.3-3.1 17.3-9.5 17.3-9.5 0 0 48.9-1.5 41.4-7.9-7.6-6.3-30.1-7.1-30.1-7.1 0 0-9-24.5-25.6-26.9-16.5-2.4-21.8 7.9-21.8 7.9 0 0-6.1-26.9-25.6-32.4-11.2-3.2-22.5 0.8-22.5 0.8 0 0-4.4-26.1-30.1-37.2-20.5-8.9-34.6 2.4-34.6 2.4 0 0-8.1-20-28.4-20-20.3 0-30 18.3-30 18.3 0 0-14.9-10.3-31.8 3.2-22.5 18-7.5 42-7.5 42 0 0-9.8 0-16.6 11.8-6.7 11.9-1.5 27.7-1.5 27.7z"/>
					</g>
					<path id="&lt;Path&gt;" class="s1" d="m110.2-615c0 0-3.2-21.4 14.4-27.2 17.7-5.9 20.3 9.6 20.3 9.6 0 0 7-12.3 16.1-12.9 9.1-0.5 12.3 9.7 12.3 9.7 0 0 9.6-6.4 17.6-3.2 8.1 3.2 9.1 19.8 9.1 19.8 0 0-6.4-12.9-13.3-14.5-7-1.6-15 9.1-15 9.1 0 0-3.8-12.3-12.8-10.7-9.1 1.6-13.4 15.5-13.4 15.5 0 0-6.4-16.6-19.3-13.4-12.8 3.3-16 18.2-16 18.2z"/>
					<path id="&lt;Path&gt;" class="s1" d="m356.4-593.8c-6.7-1-12.5-1.2-12.5-1.2 0 0-9-24.5-25.6-26.9-16.5-2.4-21.8 7.9-21.8 7.9 0 0-6.1-26.9-25.6-32.4-11.2-3.2-22.5 0.8-22.5 0.8 0 0-4.4-26.1-30.1-37.2-20.5-8.9-34.6 2.4-34.6 2.4 0 0-8.1-20-28.4-20-20.3 0-30 18.3-30 18.3 0 0-14.9-10.3-31.8 3.2-22.5 18-7.5 42-7.5 42 0 0-9.8 0-16.6 11.8-3.5 6.1-3.7 13.3-3.2 18.8 1.4-5.7 4.3-13.2 9.7-16.8 9.4-6.2 17.6-0.6 17.6-0.6 0 0-10.6-36.9 8.7-44.9 19.3-8 31.6 11.1 31.6 11.1 0 0 5.8-18.5 22.2-19.7 16.3-1.2 22.8 14.7 22.8 14.7 0 0 5.2-7.3 16.3-3 11.1 4.3 11.7 17.2 11.7 17.2 0 0 8.8-6.8 20.4-2.5 11.7 4.3 17 26.5 17 26.5 0 0 15.2-16.6 29.2-11.7 14 4.9 18.1 30.1 18.1 30.1 0 0 14-12.3 27.5-7.4 13.4 4.9 21 23.4 21 23.4 0 0 7.6-2.5 16.4-3.9z"/>
					<g id="&lt;Group&gt;">
						<path id="&lt;Path&gt;" class="s2" d="m356.9-585c-16.9 0-28-2.5-28-2.5 0 0-5.3 9.3-20.5 9.9-15.1 0.6-19.8-14.2-19.8-14.2 0 0-7.6 18.5-22.2 18.5-14.6 0-20.5-13.6-20.5-13.6 0 0-4.1 19.1-27.4 17.9-23.4-1.3-27.5-27.1-27.5-27.1 0 0-5.2 20.9-30.4 20.3-25.1-0.6-27.4-16-27.4-16 0 0-2.4 14.8-21.6 16-19.3 1.2-31-13.5-31-13.5 0 0-8.2 5.5-23.9 2.4-6.9-1.3-9.6-3.9-10.6-6.4-3.2 1.5-4.9 3.5-3 6.2 6 8.7 33.8 4.8 33.8 4.8 0 0 7.6 13.4 26.4 15.8 18.8 2.4 31.5-8.7 31.5-8.7 0 0 11.3 9.5 28.6 9.5 17.3 0 27.1-7.1 27.1-7.1 0 0 12 9.5 29.3 9.5 17.3 0 26.3-7.2 26.3-7.2 0 0 9.8 6.4 24.8 5.6 15.1-0.8 20.3-5.6 20.3-5.6 0 0 9.8 3.2 24.1 0 14.3-3.1 17.3-9.5 17.3-9.5 0 0 39.4-1.2 42-6.1-4.9 0.6-10.9 1.1-17.7 1.1z"/>
					</g>
				</g>
				<g id="&lt;Group&gt;">
					<g id="&lt;Group&gt;">
						<path id="&lt;Path&gt;" class="s0" d="m99.7-449c0 0-64.8 3.6-56.7 14.6 8.1 10.9 52.1 8.5 52.1 8.5 0 0 6.9 15.8 28.9 20.7 22 4.8 39.3-12.2 39.3-12.2 0 0 9.7 13.6 30.9 11.6 21.6-1.9 32.8-16.5 32.8-16.5 0 0 1.9 8.6 17.3 9.8 11.8 0.9 18.5-6.1 18.5-6.1 0 0 10.4 21.2 48.6 20.7 27.8-0.4 47.4-18.3 47.4-18.3 0 0 89.1 4.9 92.6-8.5 3.4-13.4-54.4-14.6-54.4-14.6 0 0 0.3-28.6-32.4-37.7-28.7-8-47.4 18.2-47.4 18.2 0 0-4.6-32.1-42.6-41.3-32.6-8-51.1 12.1-51.1 12.1 0 0-16.6-25.9-46.3-20.7-34.1 5.9-38.2 36.5-38.2 36.5 0 0-14.7-15.8-30-4.8-13.7 9.8-9.3 28-9.3 28z"/>
					</g>
					<path id="&lt;Path&gt;" class="s1" d="m396.7-443.1c-1.2-8.1-6.8-26.9-32.1-33.9-28.7-8-47.4 18.2-47.4 18.2 0 0-4.6-32.1-42.6-41.3-32.6-8-51.1 12.1-51.1 12.1 0 0-16.6-25.9-46.3-20.7-34.1 5.9-38.2 36.5-38.2 36.5 0 0-14.7-15.8-30-4.8-7.7 5.5-9.7 13.6-10 19.7 4.3-6 11.6-14.1 20.4-14.1 13.9 0 23 12.7 23 12.7 0 0 11.4-33.7 34.4-35.6 23-1.9 29.6 28 29.6 28 0 0 4.9-11.5 13.3-12.1 8.5-0.7 13.9 9.5 13.9 9.5 0 0 20-19.7 39.3-15.9 19.3 3.8 21.1 30.5 21.1 30.5 0 0 9.1-4.4 14.5-2.5 5.5 1.9 9.7 14 9.7 14 0 0 18.1-30.5 45.9-22.3 25.6 7.6 31.7 20 32.6 22z"/>
					<g id="&lt;Group&gt;">
						<path id="&lt;Path&gt;" class="s2" d="m358.8-416.2c0 0 89.1 4.9 92.6-8.5 0.1-0.5 0.1-1 0.1-1.5-8.2 3.1-24.8 7.6-48.7 5-35-3.8-37.4-15.9-37.4-15.9 0 0-10.3 15.3-26.6 17.2-16.4 1.9-19.4-10.8-19.4-10.8 0 0-4.2 23.5-27.8 16.5-23.5-7-27.8-20.3-27.8-20.3 0 0-3.6 10.1-19.3 12.7-15.7 2.5-24.8-27.4-24.8-27.4 0 0-7.2 31.8-34.4 29.9-27.2-1.9-29-26.7-29-26.7 0 0-12.7 33.7-35.1 29.9-22.4-3.8-26-22.3-26-22.3 0 0-26 8.3-40.5 3.2-3.8-1.3-5.5-3.6-6-6.2-5.1 1.9-7.7 4.2-5.7 7 8.1 10.9 52.1 8.5 52.1 8.5 0 0 6.9 15.8 28.9 20.7 22 4.8 39.3-12.2 39.3-12.2 0 0 9.7 13.6 30.9 11.6 21.6-1.9 32.8-16.5 32.8-16.5 0 0 1.9 8.6 17.3 9.8 11.8 0.9 18.5-6.1 18.5-6.1 0 0 10.4 21.2 48.6 20.7 27.8-0.4 47.4-18.3 47.4-18.3z"/>
					</g>
				</g>
				<g id="&lt;Group&gt;">
					<g id="&lt;Group&gt;">
						<path id="&lt;Path&gt;" class="s0" d="m498.5-405.2c0 0-42.4 3-31.3 11.7 11.1 8.8 33.3 7.3 33.3 7.3 0 0-1.3 2.2 13.2 6.6 14.6 4.4 31.3-0.7 31.3-0.7 0 0 4.1 3.6 16.6 4.4 12.5 0.7 25-4.4 25-4.4 0 0 47.3 2.2 45.9-6.6-1.4-8.8-20.2-9.5-20.2-9.5 0 0 6.4-33.1-19.3-43.9-21.4-9.1-29.3 2.3-29.3 2.3 0 0-12-19.3-34.8-15.1-38 7.1-30.4 47.9-30.4 47.9z"/>
					</g>
					<path id="&lt;Path&gt;" class="s1" d="m612.8-401.4q0 0 0.1-0.1c0.6-9.7-0.5-30.6-19.9-38.8-21.4-9.1-29.3 2.3-29.3 2.3 0 0-12-19.3-34.8-15.1-32.3 6-31.7 36.4-30.8 45.4 0.5-4.3 4-25.7 21.4-30.1 15.3-4 21 11 21 11 0 0 6.3-5.5 14.7-3.3 8.4 2.2 11.5 9.9 11.5 9.9 0 0 12.6-16 29.9-6.1 17.3 10 16.2 24.9 16.2 24.9z"/>
					<g id="&lt;Group&gt;">
						<path id="&lt;Path&gt;" class="s2" d="m632.5-386.9c-0.2-1.3-0.8-2.4-1.7-3.3-3.6 2.9-10.5 6.3-22.7 5.3-21-1.6-22-9.9-22-9.9 0 0-1.1 10.5-18.4 10.5-17.2 0-21.4-13.3-21.4-13.3 0 0-5.3 12.7-22.1 13.8-16.7 1.1-22.5-11.6-22.5-11.6 0 0-9.9 6.6-22.5 2.8-5.2-1.6-7.5-4.7-8.5-7.9-4.8 1.7-7.3 4-3.5 7 11.1 8.8 33.3 7.3 33.3 7.3 0 0-1.3 2.2 13.2 6.6 14.6 4.4 31.3-0.7 31.3-0.7 0 0 4.1 3.6 16.6 4.4 12.5 0.7 25-4.4 25-4.4 0 0 47.3 2.2 45.9-6.6z"/>
					</g>
				</g>
				<g id="&lt;Group&gt;">
					<g id="&lt;Group&gt;">
						<path id="&lt;Path&gt;" class="s0" d="m639.3-348.2c0 0-38.9 5.6-27.4 14.9 11.5 9.3 47.7 7.4 47.7 7.4 0 0 9.6 11.3 25.5 11.3 15.9 0 24.9-8.5 24.9-8.5 0 0 10.6 13 35.4 13.9 24.8 1 38-13 38-13 0 0 13.1 14.9 39.8 14 24.8-0.9 32.7-14.9 32.7-14.9 0 0 7.7 8.8 22.1 8.4 18.1-0.6 22.2-9.3 22.2-9.3 0 0 48.6 6.5 56.5-1.9 8-8.4-38-20.5-38-20.5 0 0 4-20.4-17.7-32-11.5-6.2-24.7-2.4-24.7-2.4 0 0 10.3-52.3-38-80-29.2-16.8-54.9 0-54.9 0 0 0-15.9-26.1-49.5-17.7-33.6 8.4-33.6 39.1-33.6 39.1 0 0-24.8-0.9-36.3 16.7-11.5 17.7-4.4 39.1-4.4 39.1 0 0-11.4-1.3-19.1 8.8-9.7 12.8-1.2 26.6-1.2 26.6z"/>
					</g>
					<path id="&lt;Path&gt;" class="s1" d="m707.2-371.1c0 0-13.9-9.1-10.1-25.9 3.8-16.8 24.9-8.2 24.9-8.2 0 0 8.7-17.2 25.5-15.8 16.8 1.5 16.8 18.7 16.8 18.7 0 0 16.8-13.4 30.7-5.3 13.9 8.2 10 25.5 10 25.5 0 0-5.7-16.8-19.6-19.7-13.9-2.9-21.1 14.9-21.1 14.9 0 0-6.3-21.1-20.7-20.2-14.4 1-15.8 17.3-15.8 17.3 0 0-5.3-11-16.3-6.7-11 4.3-4.3 25.4-4.3 25.4z"/>
					<path id="&lt;Path&gt;" class="s1" d="m918.9-352.1c-0.4-6.9-3.4-18.6-17.9-26.3-11.5-6.2-24.7-2.4-24.7-2.4 0 0 10.3-52.3-38-80-29.2-16.8-54.9 0-54.9 0 0 0-15.9-26.1-49.5-17.7-33.6 8.4-33.6 39.1-33.6 39.1 0 0-24.8-0.9-36.3 16.7-11.5 17.7-4.4 39.1-4.4 39.1 0 0-11.4-1.3-19.1 8.8-3.5 4.7-4.6 9.4-4.6 13.6 3.4-6 8.9-13.1 15.7-14.7 12.1-2.7 20.4 1.1 20.4 1.1 0 0-13.6-24.8 4.2-43.5 17.9-18.8 40.4-4.4 40.4-4.4 0 0-10.5-37.5 24.1-43.1 34.6-5.5 26.2 42 26.2 42 0 0 17.3-14.9 30.9-13.8 13.7 1.1 18.4 22 18.4 22 0 0 4.2-24.8 26.7-19.3 22.5 5.5 1 55.2 1 55.2 0 0 10-10 16.8-8.3 6.8 1.6 6.8 19.3 6.8 19.3 0 0 12.1-9.9 28.9-4.4 14.2 4.7 20.9 17.3 22.5 21z"/>
					<g id="&lt;Group&gt;">
						<path id="&lt;Path&gt;" class="s2" d="m956.7-325.9c2.4-2.4 0.1-5.2-4.2-7.8-5.8 2.8-16 6.3-28.4 4.1-19.4-3.3-20.9-11.5-20.9-11.5 0 0-1.1 13.2-21.5 17.6-20.5 4.4-29.4-18.2-29.4-18.2 0 0-7.3 22.1-29.3 22.1-22 0-24.1-23.2-24.1-23.2 0 0-5.8 10.5-14.2 9.4-8.4-1.1-15.2-10.5-15.2-10.5 0 0-3.6 25.4-21.5 26.5-17.8 1.1-37.7-18.2-37.7-18.2 0 0-2.6 12.7-23.6 14.9-20.9 2.2-30.4-30.4-30.4-30.4 0 0-12 19.3-30.9 16.6-6.6-1-10.9-3.1-13.7-5.4-2.4 1.9-2.9 4.1 0.2 6.6 11.5 9.3 47.7 7.4 47.7 7.4 0 0 9.6 11.3 25.5 11.3 15.9 0 24.9-8.5 24.9-8.5 0 0 10.6 13 35.4 13.9 24.8 1 38-13 38-13 0 0 13.1 14.9 39.8 14 24.8-0.9 32.7-14.9 32.7-14.9 0 0 7.7 8.8 22.1 8.4 18.1-0.6 22.2-9.3 22.2-9.3 0 0 48.6 6.5 56.5-1.9z"/>
					</g>
				</g>
				<g id="&lt;Group&gt;">
					<g id="&lt;Group&gt;">
						<path id="&lt;Path&gt;" class="s0" d="m1198.3 195.3c-28 4.1-42.2-2.9-42.2-2.9 0 0-14 16.7-44 18.7-30 2-50.6-8.9-50.6-8.9 0 0-14 14.8-42.1 12.8-28.1-1.9-37.5-12.8-37.5-12.8 0 0-14 27.6-51.5 27.6-37.5 0-45-31.5-47.8-31.5-2.8 0-10.3 10.8-34.6 7.9-24.4-3-31.9-17.8-31.9-17.8 0 0-15 8.9-50.6 9.9-35.6 1-50.5-16.8-50.5-16.8 0 0-41.3-1-33.8-10.8 7.5-9.9 49.7-7.9 52.5-7.9 2.8 0 1-29.5 28.1-41.4 19.7-8.6 34.6-1 34.6-1 0 0-0.4-52.9 45.5-68.7 45.9-15.7 78.2 19.5 78.2 19.5 0 0 24.6-55.3 86.2-49.3 73.7 7.1 78.6 77.8 78.6 77.8 0 0 15-20.7 51.6-8.8 36.5 11.8 42.1 56.1 42.1 56.1 0 0 8.4-0.9 22.5 2 0 0 14 5.2 20 14 6 8.8 3.6 7.5 6 8.8 2.4 1.2 25.9 0 21.1 8-4.7 7.9-28.3 7.1-28.3 7.1 0 0-13.4 7.2-21.6 8.4z"/>
					</g>
					<path id="&lt;Path&gt;" class="s1" d="m864 140.3c0 0 7.7-18.2 26.9-26.4 19.2-8.1 33.1 15.4 33.1 15.4 0 0 14.4-23 30.2-24.5 15.8-1.4 24 9.1 24 9.1 0 0 17.7-21.6 45.6-11 27.8 10.6 21.6 39.8 21.6 39.8 0 0 0-24-29.8-28.3-29.7-4.3-36 24-36 24 0 0-6.7-21.6-25.4-21.1-18.7 0.5-26.9 24.9-26.9 24.9 0 0-13.4-26.8-33.1-21.1-19.6 5.8-30.2 19.2-30.2 19.2z"/>
					<path id="&lt;Path&gt;" class="s1" d="m1177.2 140.2c-3.2-12.8-13.1-40.4-40.7-49.3-36.6-11.9-51.6 8.8-51.6 8.8 0 0-4.9-70.7-78.6-77.8-61.6-6-86.2 49.3-86.2 49.3 0 0-32.3-35.2-78.2-19.5-45.9 15.8-45.5 68.7-45.5 68.7 0 0-14.9-7.6-34.6 1-17.2 7.5-22.7 22.1-25.2 31.8 6-7.4 15.8-18.2 24.7-22.4 14.2-6.6 34.6 9.4 34.6 9.4 0 0 5.8-13.3 14.7-17.1 8.9-3.9 21.5-1.1 21.5-1.1 0 0 7.3-47.5 45-54.1 37.8-6.6 53 34.8 53 34.8 0 0 25.7-57.4 77-55.2 51.4 2.2 45.6 61.8 45.6 61.8 0 0 10.5-6.1 22-4.4 11.6 1.6 15.2 19.8 15.2 19.8 0 0 19.9-33.6 49.8-19.8 21.9 10.1 33.1 27 37.5 35.3z"/>
					<g id="&lt;Group&gt;">
						<path id="&lt;Path&gt;" class="s2" d="m1232 182.1c-14.7 0-23.6-3.9-23.6-3.9 0 0-6.8 8.3-24.1 8.8-17.3 0.6-26.8-16-26.8-16 0 0-17.8 28.2-55.5 26.5-37.8-1.6-51.9-24.8-51.9-24.8 0 0-1.6 27.6-32 25.4-30.4-2.2-44-28.7-44-28.7 0 0 5.8 36.4-37.2 41.9-43 5.5-54-44.7-54-44.7 0 0-4.7 27.6-32 27.6-27.2 0-46.6-30.9-46.6-30.9 0 0-8.4 22.1-45.1 23.2-36.7 1.1-44-14.3-44-14.3 0 0-10.5 5.5-22 2.2-4.6-1.4-7.1-3.9-8.5-6.5-1.5 0.8-2.7 1.7-3.5 2.8-7.5 9.8 33.8 10.8 33.8 10.8 0 0 14.9 17.8 50.5 16.8 35.6-1 50.6-9.9 50.6-9.9 0 0 7.5 14.8 31.9 17.8 24.3 2.9 31.8-7.9 34.6-7.9 2.8 0 10.3 31.5 47.8 31.5 37.5 0 51.5-27.6 51.5-27.6 0 0 9.4 10.9 37.5 12.8 28.1 2 42.1-12.8 42.1-12.8 0 0 20.6 10.9 50.6 8.9 30-2 44-18.7 44-18.7 0 0 14.2 7 42.2 2.9 8.2-1.2 21.6-8.4 21.6-8.4 0 0 23.6 0.8 28.3-7.1q0.5-0.7 0.6-1.3c-3.8 1.8-9.5 3.6-16.8 3.6z"/>
					</g>
				</g>
				<g id="&lt;Group&gt;">
					<g id="&lt;Group&gt;">
						<path id="&lt;Path&gt;" class="s0" d="m-27.4 90.8c0 0-58.3 2.1-39.5 11.5 18.8 9.4 40.5 8.3 40.5 8.3 0 0 7.9 8.3 24.8 11.5 16.8 3.1 37.6-4.2 37.6-4.2 0 0 10.4 9.5 36.6 9.4 20-0.2 34.6-6.3 34.6-6.3 0 0 9.8 10.2 28.7 9.4 20-0.9 27.7-9.4 27.7-9.4 0 0 15.8 17.7 49.4 17.7 33.7 0 40.6-11.4 44.6-11.4 3.9 0 100.9 0 91-12.5-9.9-12.5-34.6-10.4-34.6-10.4 0 0-1.4-21.2-22.8-25-16.6-3-20.8 3.1-20.8 3.1 0 0 0.2-39.4-36.6-51-22.2-7-32.6 2.1-32.6 2.1 0 0-4.4-27.2-29.7-28.1-32.2-1.2-40.6 31.2-40.6 31.2 0 0-9.1-14.5-29.6-3.1-9.5 5.2-10.9 20.8-10.9 20.8 0 0-10.2-5-23.8 0-10 3.7-15.8 15.6-15.8 15.6 0 0-4-36.1-37.6-36.4-49.3-0.5-40.6 57.2-40.6 57.2z"/>
					</g>
					<path id="&lt;Path&gt;" class="s1" d="m301.2 90.8c4.9 1.9 8.3 3.7 10.7 5.4-2.5-6.4-8.2-14.6-20.7-16.8-16.6-3-20.8 3.1-20.8 3.1 0 0 0.2-39.4-36.6-51-22.2-7-32.6 2.1-32.6 2.1 0 0-4.4-27.2-29.7-28.1-32.2-1.2-40.6 31.2-40.6 31.2 0 0-9.1-14.5-29.6-3.1-9.5 5.2-10.9 20.8-10.9 20.8 0 0-10.2-5-23.8 0-10 3.7-15.8 15.6-15.8 15.6 0 0-4-36.1-37.6-36.4-29.6-0.3-38.3 20.4-40.5 37 6.4-9.8 17-21.7 31.8-23.3 25.7-2.8 29.4 32 29.4 32 0 0 6.3-2.2 12.6-1.7 6.3 0.6 11 11 11 11 0 0 3.7-18.2 16.2-22.6 12.6-4.4 21 6.1 22.6 4.4 1.5-1.6 4.2-22.6 19.9-25.3 15.7-2.8 24.1 11.6 24.1 11.6 0 0 5.2-27.1 33-23.2 27.8 3.9 33 28.1 33 28.1 0 0 18.4-18.2 38.3-7.1 19.9 11 26.2 40.8 26.2 40.8 0 0 15.7-10 30.4-4.5z"/>
					<g id="&lt;Group&gt;">
					</g>
				</g>
				<g id="&lt;Group&gt;">
					<g id="&lt;Group&gt;">
						<path id="&lt;Path&gt;" class="s0" d="m308.3 108.1c0 0-52.3-2.7-45.6 6.1 6.6 8.7 44 9.6 44 9.6 0 0 6.6 14 20.7 16.6 14.2 2.6 27.5-7 27.5-7 0 0 5 15.2 25.7 16.1 20.8 0.8 27.4-14.4 27.4-14.4 0 0 14.9 13.7 38.2 10.8 26.2-3.3 32.4-15.1 32.4-15.1 0 0 14.1 20.1 33.2 20.1 19.1 0 31.6-17.5 31.6-17.5 0 0 44.8 3.5 44.8-4.4 0-7.8-38.2-10.5-38.2-10.5 0 0-4.1-23.5-27.4-26.2 0 0 1.7-22.6-12.6-30.1-14.2-7.5-24.5-1.5-24.5-1.5 0 0 2.6-25.2-26.5-31.5-23.6-5.1-31.6 12.9-31.6 12.9 0 0-9.1-29.1-39.1-21-26.8 7.3-22.5 42.6-22.5 42.6 0 0-8.8-7.2-17.9-2.4-9.2 4.8-8.3 16.2-8.3 16.2 0 0-11.5-9.9-24.2-0.6-15.7 11.4-7.1 31.2-7.1 31.2z"/>
					</g>
					<path id="&lt;Path&gt;" class="s1" d="m547.9 112c-3-7.2-10-17.9-25.3-19.7 0 0 1.7-22.6-12.6-30.1-14.2-7.5-24.5-1.5-24.5-1.5 0 0 2.6-25.2-26.5-31.5-23.6-5.1-31.6 12.9-31.6 12.9 0 0-9.1-29.1-39.1-21-26.8 7.3-22.5 42.6-22.5 42.6 0 0-8.8-7.2-17.9-2.4-9.2 4.8-8.3 16.2-8.3 16.2 0 0-11.5-9.9-24.2-0.6-7.5 5.4-9.4 12.7-9.4 18.9 3.7-5.8 9.6-12.5 17.5-12.5 14 0 22 11 22 11 0 0-1.3-19.3 10.9-21.2 12.3-2 19.6 7 19.6 7 0 0-3.7-37.9 20.8-43.7 24.4-5.8 37.2 25.1 37.2 25.1 0 0 7.9-20.6 28.1-16.7 20.2 3.8 22 29.5 22 29.5 0 0 12.2-9.6 22.6-4.5 10.4 5.2 9.2 30.9 9.2 30.9 0 0 7.3-3.2 16.4-0.7 6.1 1.8 12.2 8 15.6 12z"/>
					<g id="&lt;Group&gt;">
						<path id="&lt;Path&gt;" class="s2" d="m536 121.9c0 0-4.9 12.2-25 14.1-20.2 2-31.8-18-31.8-18 0 0-11.6 17.4-34.2 19.3-22.6 1.9-35.4-33.4-35.4-33.4 0 0 1.8 32.8-22.6 34.7-24.4 1.9-28.1-28.3-28.1-28.3 0 0-6.1 22.5-23.2 22.5-17.1 0-23.2-17.3-23.2-17.3 0 0-17.1 7.7-34.2 1.9-4.8-1.6-8.1-4.6-10.5-8.1-4.5 1-6.9 2.5-5.1 4.9 6.6 8.7 44 9.6 44 9.6 0 0 6.6 14 20.7 16.6 14.2 2.6 27.5-7 27.5-7 0 0 5 15.2 25.7 16.1 20.8 0.8 27.4-14.4 27.4-14.4 0 0 14.9 13.7 38.2 10.8 26.2-3.3 32.4-15.1 32.4-15.1 0 0 14.1 20.1 33.2 20.1 19.1 0 31.6-17.5 31.6-17.5 0 0 44.8 3.5 44.8-4.4 0-1.1-0.8-2.2-2.3-3.2-5.1 2.1-11.7 3.8-20 3.8-20.1 0-29.9-7.7-29.9-7.7z"/>
					</g>
				</g>
				<g id="&lt;Group&gt;">
					<g id="&lt;Group&gt;">
						<path id="&lt;Path&gt;" class="s0" d="m684.8 96.5c0 0-61.4 2.3-47.7 16.7 13.6 14.3 57.9 10.7 57.9 10.7 0 0 8.1 15.7 34.3 19.3 26.1 3.6 40.7-12.1 40.7-12.1 0 0 8.8 21.4 51.1 23.5 38.2 1.9 55.7-21.1 55.7-21.1 0 0 94.3 4.8 89.7-8.4-4.5-13.1-40.9-14.3-40.9-14.3 0 0 3-36.2-29-50-24.6-10.5-39.1 1-39.1 1 0 0-11.7-43-60.3-43-48.6-0.1-60.2 43-60.2 43 0 0-19-8.5-38.6 7.2-13.3 10.6-13.6 27.5-13.6 27.5z"/>
					</g>
					<path id="&lt;Path&gt;" class="s1" d="m896.6 60.8c-24.6-10.5-39.1 1-39.1 1 0 0-11.7-43-60.3-43-48.6-0.1-60.2 43-60.2 43 0 0-19-8.5-38.6 7.2-3.3 2.6-5.8 5.7-7.7 8.7 8.9-4.9 20.5-9.8 29.6-8.6 17.3 2.2 22.8 10.9 22.8 10.9 0 0 4.9-43 45-45.1 40.2-2.2 44.3 45.1 44.3 45.1 0 0 6.9-7.3 15.9-8.7 9-1.5 17.3 13.8 17.3 13.8 0 0 15.3-19.7 33.9-8.7 18.7 10.9 26.1 34.4 26.1 34.4 0 0 3-36.2-29-50z"/>
					<g id="&lt;Group&gt;">
						<path id="&lt;Path&gt;" class="s2" d="m966.5 125.1c-0.6-1.7-1.8-3.3-3.4-4.6-7.5 3.9-22.3 9.5-41.4 7.6-28.4-3-27.7-23.3-27.7-23.3 0 0-10.4 16-22.1 16-11.8 0-16-11.7-16-11.7 0 0-0.6 35.7-38 34.2-37.4-1.4-41.5-48-41.5-48 0 0 2 40-36 42.2-38.1 2.2-46.4-28.4-46.4-28.4 0 0-9 9.5-40.1 6.6-7.7-0.7-13.9-3.2-18.8-6.6 0 1.3 0.6 2.6 2 4.1 13.6 14.3 57.9 10.7 57.9 10.7 0 0 8.1 15.7 34.3 19.3 26.1 3.6 40.7-12.1 40.7-12.1 0 0 8.8 21.4 51.1 23.5 38.2 1.9 55.7-21.1 55.7-21.1 0 0 94.3 4.8 89.7-8.4z"/>
					</g>
				</g>
				<g id="&lt;Group&gt;">
					<g id="&lt;Group&gt;">
						<path id="&lt;Path&gt;" class="s0" d="m500.3 96.3c0 0-46.7 5.4-30.6 13.6 16.1 8.2 37.1 6.8 37.1 6.8 0 0 5.7 11.2 23.4 12.7 17.2 1.5 28.3-7.6 28.3-7.6 0 0 7.8 9.5 25.5 11.3 20.8 2.2 31-7.9 31-7.9 0 0 7.2 9.3 29.8 8.5 22.6-0.9 30.7-16.2 30.7-16.2 0 0 42.8 3.4 48.4-2.5 5.7-6-23.4-13.6-23.4-13.6 0 0 6.3-50-29-60.3-28.6-8.4-46.8 21.2-46.8 21.2 0 0-3.1-9.6-17.2-10.6-12.9-0.9-16.7 12.3-16.7 12.3 0 0-8.1-5.1-18.6-3.4-10.5 1.7-13.7 8.5-13.7 8.5 0 0-10.2-24.4-33.5-19.1-36.2 8.3-24.7 46.3-24.7 46.3z"/>
					</g>
					<path id="&lt;Path&gt;" class="s1" d="m671.5 41.1c-28.6-8.4-46.8 21.2-46.8 21.2 0 0-3.1-9.6-17.2-10.6-12.9-0.9-16.7 12.3-16.7 12.3 0 0-8.1-5.1-18.6-3.4-10.5 1.7-13.7 8.5-13.7 8.5 0 0-10.2-24.4-33.5-19.1-27.1 6.2-27.4 29-25.9 40.1 1.8-7.5 7.2-21.9 22.2-23.6 21.3-2.2 30.4 21 30.4 21 0 0 10-19.3 20.5-21.5 10.4-2.2 17.8 10.5 17.8 10.5 0 0 8.4-7.7 15.2-6.1 6.8 1.7 11 12.1 11 12.1 0 0 5.8-16.5 19.4-16 13.6 0.6 20.9 9.4 20.9 9.4 0 0 0.6-18.7 20.5-16 13.4 1.9 20.4 15.3 23.5 23.8-1.4-15.4-7.5-36.3-29-42.6z"/>
					<g id="&lt;Group&gt;">
						<path id="&lt;Path&gt;" class="s2" d="m717.7 107.4c-3.9 3.5-10.7 6.6-22.4 6.6-27.2 0-28.8-15.5-28.8-15.5 0 0-4.2 23.2-27.3 25.4-23 2.2-27.2-20.4-27.2-20.4 0 0-1.1 17.6-26.2 19.8-25.2 2.3-29.9-23.7-29.9-23.7 0 0-2.1 19.3-23.6 19.3-21.5 0-23.6-14.9-23.6-14.9 0 0-1.5 6.7-22.5 5.6-8.6-0.5-13.9-3.2-17-6.2-3.5 1.9-4.3 4 0.5 6.5 16.1 8.2 37.1 6.8 37.1 6.8 0 0 5.7 11.2 23.4 12.7 17.2 1.5 28.3-7.6 28.3-7.6 0 0 7.8 9.5 25.5 11.3 20.8 2.2 31-7.9 31-7.9 0 0 7.2 9.3 29.8 8.5 22.6-0.9 30.7-16.2 30.7-16.2 0 0 42.8 3.4 48.4-2.5 2.4-2.5-1.2-5.2-6.2-7.6z"/>
					</g>
				</g>
			</g>
		</g>
	</g>
</svg>